<svg width="174" height="419" viewBox="0 0 174 419" fill="none" xmlns="http://www.w3.org/2000/svg">
<path d="M53.6113 289.624C83.5 289.624 108.223 315 108.223 358.31" stroke="#FBFAFA" stroke-opacity="0.4" stroke-width="2"/>
<path d="M49 418C94.7097 418 108 398.502 108 358.5" stroke="#FBFAFA" stroke-opacity="0.4" stroke-width="2"/>
<path d="M2.99907 346.054C3.02905 345.503 2.60629 345.031 2.05482 345.001C1.50335 344.971 1.03199 345.394 1.00202 345.946L2.99907 346.054ZM1.00202 345.946C-0.253063 369.037 2.99457 387.283 10.9694 399.788C18.9895 412.364 31.7058 419 49.0002 419V417C32.294 417 20.2602 410.636 12.6557 398.712C5.00576 386.717 1.75388 368.963 2.99907 346.054L1.00202 345.946Z" fill="#FBFAFA" fill-opacity="0.4"/>
<path d="M172.876 3.57353C173.388 3.7814 173.634 4.3647 173.426 4.87637L170.039 13.2146C169.831 13.7262 169.248 13.9725 168.736 13.7647C168.225 13.5568 167.978 12.9735 168.186 12.4618L171.197 5.05009L163.785 2.03907C163.274 1.8312 163.027 1.2479 163.235 0.736228C163.443 0.224555 164.027 -0.021729 164.538 0.186138L172.876 3.57353ZM172.889 5.42125C150.387 14.9219 109.223 36.6912 109.223 84.6903L107.223 84.6903C107.223 35.3088 149.613 13.0781 172.111 3.57875L172.889 5.42125Z" fill="#FBFAFA" fill-opacity="0.4"/>
<path d="M55 151.5L54 151.5L54 153.5L55 153.5L55 151.5ZM55 153.5C70.8159 153.5 84.3917 144.646 93.975 131.68C103.557 118.716 109.222 101.555 109.222 84.6904L107.222 84.6904C107.222 101.136 101.689 117.879 92.3667 130.492C83.0455 143.103 70.0102 151.5 55 151.5L55 153.5Z" fill="#FBFAFA" fill-opacity="0.4"/>
<path d="M54 152.5C23.1708 152.5 3 178.141 3 221" stroke="#FBFAFA" stroke-opacity="0.4" stroke-width="2"/>
<path d="M53.6113 289.624C25 289.624 3 276.563 3 221" stroke="#FBFAFA" stroke-opacity="0.4" stroke-width="2"/>
</svg>
