<svg width="705" height="809" viewBox="0 0 705 809" fill="none" xmlns="http://www.w3.org/2000/svg">
<path fill-rule="evenodd" clip-rule="evenodd" d="M438.644 135.387C504.727 159.048 593.612 131.716 634.847 186.141C676.796 241.508 634.733 312.778 622.624 378.215C608.828 452.772 627.147 546.867 560.499 587.936C492.969 629.548 397.366 599.718 324.325 562.03C264.826 531.33 253.633 461.492 214.337 409.325C167.362 346.964 75.2991 306.702 75.4112 231.59C75.5351 148.596 130.695 58.0786 214.894 35.7782C295.572 14.4106 358.632 106.739 438.644 135.387Z" fill="white" fill-opacity="0.15"/>
<path d="M449.581 275.753C415.909 294.297 381.613 352.096 368.674 378.677C322.998 472.175 234.171 664.084 244.273 683.742C256.9 708.314 368.674 716.195 421.054 716.195C462.958 716.195 598.907 716.195 624.023 677.715C701.19 559.491 633.329 369.042 595.448 319.898C543.261 252.195 491.672 252.571 449.581 275.753Z" fill="#FFE30C"/>
<path d="M600.44 617.375C619.661 609.308 631.476 588.561 629.146 578.558H366.043L347.071 639.813C412.39 634.523 566.395 631.664 600.44 617.375Z" fill="#E4B061" fill-opacity="0.74"/>
<path d="M580.946 401.881C541.353 355.142 491.668 322.826 471.774 312.51C430.318 571.426 527.282 553.051 580.946 511.498C603.945 499.64 630.437 460.305 580.946 401.881Z" fill="#E4B061" fill-opacity="0.77"/>
<path d="M544.602 375.692C520.246 346.617 486.308 321.685 472.383 312.854C460.032 316.371 441.371 321.107 436.273 316.605C429.901 310.978 402.524 331.611 378.687 360.451C366.931 374.674 351.074 395.7 343.049 403.36C335.969 389.291 333.482 440.95 322.862 424.303L290.41 392.063C304.099 487.728 317.796 490.583 349.422 490.583C374.722 490.583 387.2 466.956 393.415 454.295L397.929 493.66L501.176 490.583C589.68 502.072 596.524 464.791 590.624 446.502C584.724 428.214 575.047 412.035 544.602 375.692Z" fill="white"/>
<path d="M442.993 326.87L448.481 317.448L456.438 326.87C461.267 366.555 465.401 438.922 466.865 470.145H454.517C455.176 457.065 447.109 369.178 442.993 326.87Z" fill="#5158BF"/>
<path d="M465.494 304.003C449.907 302.321 428.71 302.809 425.02 304.003L448.401 316.721L465.494 304.003Z" fill="#46274C"/>
<rect width="140.271" height="41.201" rx="6" transform="matrix(-1 0 0 1 640.133 663.081)" fill="#5158BF"/>
<rect width="181.742" height="39.3834" rx="10" transform="matrix(-1 0 0 1 655.38 704.282)" fill="#979797"/>
<rect width="6.70861" height="41.201" transform="matrix(-1 0 0 1 611.017 663.081)" fill="#FBFAFA" fill-opacity="0.7"/>
<rect width="6.70861" height="41.201" transform="matrix(-1 0 0 1 600.039 663.081)" fill="#FBFAFA" fill-opacity="0.7"/>
<rect width="139.661" height="17.571" transform="matrix(-1 0 0 1 639.071 715.187)" fill="#FBFAFA" fill-opacity="0.7"/>
<path d="M633.106 704.155L507.576 704.155" stroke="black" stroke-opacity="0.81" stroke-width="2" stroke-linecap="round"/>
<path d="M418.659 254.886C417.733 250.483 419.045 246.079 419.817 244.427C427.536 240.758 444.133 234.519 448.765 238.923C453.397 243.327 451.467 256.538 449.923 262.593C458.028 244.427 474.239 253.785 474.239 264.795C474.239 273.602 464.204 275.804 459.186 275.804V312.685C446.681 322.814 435.835 316.905 431.975 312.685L430.501 296C411.975 290.495 414.028 273.602 416.344 268.097C418.659 262.593 419.817 260.391 418.659 254.886Z" fill="#EAA296"/>
<path d="M450.499 292.318C443.088 297.603 434.166 296.917 430.499 296L431.467 307.469C441.657 305.708 448.376 296.355 450.499 292.318Z" fill="#46274C"/>
<ellipse cx="2.96133" cy="5.98751" rx="2.96133" ry="5.98751" transform="matrix(-0.987219 -0.159367 -0.137243 0.990537 422.223 265.459)" fill="#E9746E" fill-opacity="0.78"/>
<ellipse cx="5.04122" cy="7.2204" rx="5.04122" ry="7.2204" transform="matrix(-0.984767 0.173879 0.11867 0.992934 446.062 263.405)" fill="#E9746E" fill-opacity="0.78"/>
<path d="M463.813 252.686C455.476 251.365 451.2 260.202 449.849 264.239C450.043 258.734 449.339 246.411 447.024 245.53C444.129 244.429 426.76 245.53 419.813 244.429C412.866 243.328 408.234 241.126 407.655 235.071C407.192 230.227 409.392 226.813 413.444 226.264C428.919 224.164 454.55 225.163 459.181 228.466C462.887 231.108 463.813 236.172 463.813 238.374V252.686Z" fill="#472E2C"/>
<path d="M467.868 259.844L457.81 263.41L464.395 267" stroke="#46274C" stroke-width="2" stroke-linecap="round"/>
<path d="M432.292 258.42C432.7 261.376 434.863 267.289 440.249 267.289C446.982 267.289 448.206 260.785 448.206 258.42" stroke="white" stroke-width="2"/>
<path d="M412.534 258.42C413.146 260.956 415.472 266.26 419.879 267.196C424.286 268.132 427.428 261.736 428.449 258.42" stroke="white" stroke-width="2"/>
<path d="M412.534 258.42H452.046" stroke="white" stroke-width="2" stroke-linecap="round"/>
<path d="M472.978 313.388L465.501 303.596L449.001 316.5L424.855 303.596L420.219 321.604C458.45 317.549 469.112 317.341 472.978 313.388Z" fill="white"/>
<path d="M456.499 328C462.065 374.248 466.864 449.637 466.864 471.53" stroke="#46274C" stroke-width="2"/>
<path d="M443.417 325.875L454.521 464.049" stroke="#46274C" stroke-width="2"/>
<path d="M420 321L436.635 335.439L449 317.5L460.75 333.956L473 312.5" stroke="#46274C" stroke-width="2"/>
<ellipse cx="2.67878" cy="2.63325" rx="2.67878" ry="2.63325" transform="matrix(0.925498 -0.378752 0.37234 0.928096 446.689 331.646)" fill="white"/>
<ellipse cx="2.67878" cy="2.63325" rx="2.67878" ry="2.63325" transform="matrix(0.925498 -0.378752 0.37234 0.928096 448.731 358.314)" fill="white"/>
<path d="M406.495 226.036C402.381 230.423 402.295 244.866 420.705 243.1" stroke="#472E2C" stroke-width="2" stroke-linecap="round"/>
<path d="M344.485 405.576C345.766 413.982 348.327 432.236 348.327 438" stroke="#46274C" stroke-width="2" stroke-linecap="round"/>
<ellipse cx="3.431" cy="1.96649" rx="3.431" ry="1.96649" transform="matrix(0.970967 -0.239214 0.234768 0.972051 448.601 477.866)" fill="white" fill-opacity="0.63"/>
<path d="M187.878 684.334L196.944 654.242L258.335 679.487L247.075 710.406L187.878 684.334Z" fill="#EAA296"/>
<path d="M188.427 684.13L183.021 703.537C176.397 744.743 216.009 746.519 236.643 742.256L247.623 710.202L188.427 684.13Z" fill="white"/>
<path d="M210.357 737.34L244.152 717.367C268.826 746.311 262.903 779.464 256.857 792.423L78.4134 735.231C80.3991 728.926 85.0775 713.099 93.3598 706.487C105.963 696.426 167.741 710.756 178.743 716.368C187.544 720.858 198.161 731.36 210.357 737.34Z" fill="#EC286F"/>
<path d="M81.9177 724.729L258.951 780.01C261.872 780.922 258.766 788.674 256.848 792.435L78.8428 735.058L81.9177 724.729Z" fill="#5158BF"/>
<path d="M166.333 713.524L188.184 737.667" stroke="#46274C" stroke-width="3" stroke-linecap="round"/>
<path d="M179.207 715.998L205.106 736.413" stroke="#46274C" stroke-width="3" stroke-linecap="round"/>
<path d="M82.9404 725.418L259.757 779.886" stroke="white" stroke-width="4" stroke-linecap="round"/>
<path d="M363.295 536.895L393.998 533.673L379.374 583.7L351.313 579.551L363.295 536.895Z" fill="#E97E77"/>
<path d="M363.048 538.135L341.83 536.151C304.814 535.574 313.263 563.484 320.823 575.733L336.588 579.742L350.708 579.742L363.048 538.135Z" fill="white"/>
<path d="M320.177 559.257L342.33 579.054C321.815 596.569 293.431 594.912 281.049 592.309L297.332 478.458C303.177 479.14 317.794 480.666 325.083 485.17C336.176 492.023 335.288 530.978 332.473 538.173C330.221 543.929 323.088 551.301 320.177 559.257Z" fill="#ECE9E8"/>
<path d="M307.105 479.713L292.218 592.541C291.972 594.402 284.661 593.157 281.036 592.302L297.562 478.704L307.105 479.713Z" fill="#46274C"/>
<path d="M332.622 530.35L315.746 545.735" stroke="#46274C" stroke-width="3" stroke-linecap="round"/>
<path d="M306.697 480.397L292.476 593.025" stroke="white" stroke-width="4" stroke-linecap="round"/>
<path d="M534.856 442.834L497.871 403.831C503.596 416.47 510.29 443.579 501.75 447.45L498.242 447.817C499.622 448.029 500.783 447.888 501.75 447.45L517.302 445.824L534.856 442.834Z" fill="#ECE9E8"/>
<path d="M539.802 443.17C530.637 443.827 524.239 446.587 497.908 448.474" stroke="#46274C" stroke-width="2"/>
<path d="M594.415 518.103C562.601 500.69 503.216 490.662 487.153 486.648C371.641 518.102 289.919 464.048 265.591 486.647C241.263 509.247 214.124 572.958 165.868 643.451L275.416 694.584L327.886 538.704H385.892C381.892 550.122 373.98 607.903 371.641 622.105C462.651 615.899 572.426 608.946 579.163 608.205C587.585 607.279 627.241 601.499 631.452 576.491C635.663 551.483 634.182 539.869 594.415 518.103Z" fill="#5158BF"/>
<path d="M458.8 491.859L398.372 492.659L399.896 504.805H431.737L463.866 501.838V496.858C463.866 494.071 461.587 491.822 458.8 491.859Z" fill="#EC286F" stroke="#141414" stroke-linecap="round"/>
<path d="M376.162 381.221L281.198 382.221C278.019 382.254 275.678 385.207 276.371 388.31L303.108 508.058L407.105 506.95L381.104 385.176C380.608 382.85 378.541 381.196 376.162 381.221Z" fill="#EC286F" stroke="#141414" stroke-linecap="round"/>
<ellipse cx="8.80396" cy="13.9245" rx="8.80396" ry="13.9245" transform="matrix(0.98927 -0.146101 0.147983 0.98899 325.378 429.281)" fill="white" fill-opacity="0.47"/>
<path d="M387.347 539.553C406.464 541.482 453.898 544.183 490.696 539.553" stroke="#46274C" stroke-opacity="0.73" stroke-width="2"/>
<path d="M281.715 469.117L298.154 462.295C301.285 458.935 297.811 450.818 295.38 449.179L293.675 446.976C291.816 441.716 290.366 436.528 291.818 432.158C293.111 428.27 301.653 413.68 298.361 410.984C295.728 408.827 289.72 415.048 288.072 416.82C290.195 410.261 290.751 402.597 286.594 402.851C283.268 403.054 282.34 406.87 281.579 410.143C278.87 395.536 275.773 390.184 274.097 395.961C268.673 414.658 261.841 427.626 281.715 469.117Z" fill="#EAA296"/>
<path d="M280.309 411.524C279.381 414.279 277.38 420.469 276.803 423.183" stroke="#46274C" stroke-width="2" stroke-linecap="round"/>
<path d="M288.901 415.639C286.349 419.615 281.27 428.401 281.378 431.74C281.486 435.079 282.085 436.435 282.371 436.696" stroke="#46274C" stroke-width="2" stroke-linecap="round"/>
<ellipse cx="3.78271" cy="1.64446" rx="3.78271" ry="1.64446" transform="matrix(0.350391 -0.934598 -0.982077 -0.19716 284.489 410.572)" fill="white" fill-opacity="0.63"/>
<ellipse cx="2.91421" cy="1.64617" rx="2.91421" ry="1.64617" transform="matrix(0.0311014 -0.998222 -0.992928 0.12517 277.03 400.12)" fill="white" fill-opacity="0.63"/>
<ellipse cx="3.41873" cy="1.7465" rx="3.41873" ry="1.7465" transform="matrix(0.799314 -0.599098 -0.697691 -0.718407 292.64 417.024)" fill="white" fill-opacity="0.63"/>
<path d="M301.643 615.757C333.395 607.821 347.99 588.643 351.318 580.046H340.335C330.15 588.18 315.123 592.197 308.882 593.189L301.643 615.757Z" fill="#E4B061"/>
<path d="M497.719 464.178L496.488 481.394C494.132 485.306 484.551 484.602 482.008 482.869L479.139 481.977C473.068 481.88 467.217 482.139 463.23 484.816C459.682 487.199 447.672 499.536 443.737 497.335C440.588 495.574 444.876 488.138 446.12 486.078C440.116 490.044 432.421 492.908 431.217 489.006C430.254 485.884 433.857 483.859 436.958 482.155C420.966 484.146 414.364 482.939 419.721 479.624C437.058 468.895 448.001 458.63 497.719 464.178Z" fill="#EAA296"/>
<path d="M438.229 480.558C440.775 478.858 446.526 475.117 449.155 473.752" stroke="#46274C" stroke-width="2" stroke-linecap="round"/>
<path d="M445.596 487.201C448.837 483.632 456.2 476.262 459.727 475.336C463.254 474.411 464.884 474.545 465.258 474.728" stroke="#46274C" stroke-width="2" stroke-linecap="round"/>
<ellipse cx="3.98829" cy="1.65055" rx="3.98829" ry="1.65055" transform="matrix(-0.807351 0.57799 -0.554805 -0.839968 438.727 484.698)" fill="white" fill-opacity="0.63"/>
<ellipse cx="3.17457" cy="1.60504" rx="3.17457" ry="1.60504" transform="matrix(-0.947015 0.307663 -0.229628 -0.976214 425.146 481.046)" fill="white" fill-opacity="0.63"/>
<path d="M488.92 558.366C479.063 553.353 469.977 549.71 461.285 544.015" stroke="#46274C" stroke-opacity="0.73" stroke-width="2"/>
<ellipse cx="3.36861" cy="1.88354" rx="3.36861" ry="1.88354" transform="matrix(-0.345359 0.932869 -0.926652 -0.390441 448.379 490.216)" fill="white" fill-opacity="0.63"/>
<path d="M492.246 490.116C477.204 492.528 477.599 480.034 459.758 487.761C463.719 482.51 473.792 479.399 480.554 481.315C485.964 482.848 491.597 482.525 492.246 482.379L492.246 490.116Z" fill="#E97E77"/>
<path d="M489.875 491.708L485.793 446.978L498.092 445.9L501.951 491.849L489.875 491.708Z" fill="#5158BF"/>
<path d="M252.102 502.637C199.99 608.783 194.039 647.724 194.039 656.112L162.888 643.675C184.548 620.768 222.989 543.129 252.102 502.637Z" fill="#666EEB"/>
<path d="M406.944 717.59L405.195 681.065C371.858 685.664 350.981 713.135 343.705 726.651L467.623 804.483C471.591 798.548 481.687 783.854 483.073 773.474C485.181 757.679 446.494 726.739 437.247 723.463C429.849 720.843 417.008 721.397 406.944 717.59Z" fill="#EC286F"/>
<path d="M474.148 794.469L352.334 716.186C350.324 714.895 345.744 722.638 343.704 726.67L467.569 804.073L474.148 794.469Z" fill="#5158BF"/>
<path d="M444.993 729.708L416.617 732.694" stroke="#46274C" stroke-width="3" stroke-linecap="round"/>
<path d="M437.326 722.884L410.01 720.435" stroke="#46274C" stroke-width="3" stroke-linecap="round"/>
<path d="M289.668 464.787C300.123 459.808 294.505 450.378 293.089 446.297C296.495 448.683 299.238 452.419 299.34 458.907C299.479 467.755 289.235 473.53 283.485 471.009C278.886 468.993 276.177 457.716 274.98 452.988C276.872 457.157 282.526 468.188 289.668 464.787Z" fill="#E97E77"/>
<path d="M473.156 794.282L352.065 715.551" stroke="white" stroke-width="4" stroke-linecap="round"/>
</svg>
