<svg width="705" height="809" viewBox="0 0 705 809" fill="none" xmlns="http://www.w3.org/2000/svg">
<path fill-rule="evenodd" clip-rule="evenodd" d="M438.644 135.387C504.727 159.048 593.612 131.716 634.847 186.141C676.796 241.508 634.733 312.778 622.624 378.215C608.828 452.772 627.147 546.867 560.499 587.936C492.969 629.548 397.366 599.718 324.325 562.03C264.826 531.33 253.633 461.492 214.337 409.325C167.362 346.964 75.2991 306.702 75.4112 231.59C75.5351 148.596 130.695 58.0786 214.894 35.7782C295.572 14.4106 358.632 106.739 438.644 135.387Z" fill="white" fill-opacity="0.15"/>
<path d="M449.581 275.753C415.909 294.297 381.613 352.096 368.674 378.677C322.998 472.175 234.171 664.084 244.273 683.742C256.9 708.314 368.674 716.195 421.054 716.195C462.958 716.195 598.907 716.195 624.023 677.715C701.19 559.491 633.329 369.042 595.448 319.898C543.261 252.195 491.672 252.571 449.581 275.753Z" fill="#FFE30C"/>
<path d="M600.44 617.375C619.661 609.308 631.476 588.561 629.146 578.558H366.043L347.071 639.813C412.39 634.523 566.395 631.664 600.44 617.375Z" fill="#E4B061" fill-opacity="0.74"/>
<path d="M580.946 401.881C541.353 355.142 491.668 322.826 471.774 312.51C430.318 571.426 527.282 553.051 580.946 511.498C603.945 499.64 630.437 460.305 580.946 401.881Z" fill="#E4B061" fill-opacity="0.77"/>
<path d="M544.602 375.692C520.246 346.617 486.308 321.685 472.383 312.854C460.032 316.371 441.371 321.107 436.273 316.605C429.901 310.978 402.524 331.611 378.687 360.451C366.931 374.674 351.074 395.7 343.049 403.36C335.969 389.291 333.482 440.95 322.862 424.303L290.41 392.063C304.099 487.728 317.796 490.583 349.422 490.583C374.722 490.583 387.2 466.956 393.415 454.295L397.929 493.66L501.176 490.583C589.68 502.072 596.524 464.791 590.624 446.502C584.724 428.214 575.047 412.035 544.602 375.692Z" fill="white"/>
<path d="M442.993 326.87L448.481 317.448L456.438 326.87C461.267 366.555 465.401 438.922 466.865 470.145H454.517C455.176 457.065 447.109 369.178 442.993 326.87Z" fill="#5158BF"/>
<path d="M465.494 304.003C449.907 302.321 428.71 302.809 425.02 304.003L448.401 316.721L465.494 304.003Z" fill="#46274C"/>
<rect width="140.271" height="41.201" rx="6" transform="matrix(-1 0 0 1 640.133 663.081)" fill="#5158BF"/>
<rect width="181.742" height="39.3834" rx="10" transform="matrix(-1 0 0 1 655.38 704.282)" fill="#979797"/>
<rect width="6.70861" height="41.201" transform="matrix(-1 0 0 1 611.017 663.081)" fill="#FBFAFA" fill-opacity="0.7"/>
<rect width="6.70861" height="41.201" transform="matrix(-1 0 0 1 600.039 663.081)" fill="#FBFAFA" fill-opacity="0.7"/>
<rect width="139.661" height="17.571" transform="matrix(-1 0 0 1 639.071 715.187)" fill="#FBFAFA" fill-opacity="0.7"/>
<path d="M633.106 704.155L507.576 704.155" stroke="black" stroke-opacity="0.81" stroke-width="2" stroke-linecap="round"/>
<path d="M414.287 256.088C412.925 251.799 413.79 247.286 414.393 245.566C421.707 241.143 437.597 233.276 442.646 237.195C447.695 241.113 447.095 254.451 446.164 260.63C452.413 241.746 469.478 249.436 470.579 260.39C471.459 269.154 461.694 272.348 456.702 272.849L460.389 309.546C448.959 320.874 437.577 316.079 433.314 312.266L430.179 295.812C411.195 292.187 411.55 275.173 413.303 269.464C415.057 263.756 415.989 261.449 414.287 256.088Z" fill="#EAA296"/>
<path d="M449.708 290.149C442.863 296.148 433.917 296.358 430.177 295.812L432.286 307.127C442.249 304.356 447.999 294.378 449.708 290.149Z" fill="#46274C"/>
<ellipse cx="2.96133" cy="5.98751" rx="2.96133" ry="5.98751" transform="matrix(-0.998206 -0.0598785 -0.0375336 0.999295 418.889 266.251)" fill="#E9746E" fill-opacity="0.78"/>
<ellipse cx="5.04122" cy="7.2204" rx="5.04122" ry="7.2204" transform="matrix(-0.962452 0.271453 0.217337 0.976097 442.404 261.824)" fill="#E9746E" fill-opacity="0.78"/>
<path d="M458.994 249.385C450.566 248.904 447.196 258.124 446.255 262.275C445.897 256.779 443.965 244.588 441.573 243.943C438.583 243.137 421.411 245.969 414.389 245.568C407.366 245.167 402.537 243.439 401.356 237.472C400.411 232.699 402.259 229.082 406.236 228.13C421.423 224.494 447.025 222.925 451.964 225.748C455.915 228.007 457.343 232.953 457.563 235.144L458.994 249.385Z" fill="#472E2C"/>
<path d="M463.745 256.101L454.093 260.655L461.004 263.569" stroke="#46274C" stroke-width="2" stroke-linecap="round"/>
<path d="M428.204 258.241C428.906 261.142 431.649 266.808 437.008 266.27C443.707 265.596 444.275 259.003 444.039 256.65" stroke="white" stroke-width="2"/>
<path d="M411.334 261.079C412.196 263.54 415.041 268.585 419.52 269.076C423.998 269.567 426.485 262.888 427.169 259.488" stroke="white" stroke-width="2"/>
<path d="M408.545 260.216L447.859 256.267" stroke="white" stroke-width="2" stroke-linecap="round"/>
<path d="M472.978 313.388L465.501 303.596L449.001 316.5L424.855 303.596L420.219 321.604C458.45 317.549 469.112 317.341 472.978 313.388Z" fill="white"/>
<path d="M456.499 328C462.065 374.248 466.864 449.637 466.864 471.53" stroke="#46274C" stroke-width="2"/>
<path d="M443.417 325.875L454.521 464.049" stroke="#46274C" stroke-width="2"/>
<path d="M420 321L436.635 335.439L449 317.5L460.75 333.956L473 312.5" stroke="#46274C" stroke-width="2"/>
<ellipse cx="2.67878" cy="2.63325" rx="2.67878" ry="2.63325" transform="matrix(0.925498 -0.378752 0.37234 0.928096 446.689 331.646)" fill="white"/>
<ellipse cx="2.67878" cy="2.63325" rx="2.67878" ry="2.63325" transform="matrix(0.925498 -0.378752 0.37234 0.928096 448.731 358.314)" fill="white"/>
<path d="M399.299 228.598C395.644 233.375 397.002 247.754 415.144 244.156" stroke="#472E2C" stroke-width="2" stroke-linecap="round"/>
<path d="M344.485 405.576C345.766 413.982 348.327 432.236 348.327 438" stroke="#46274C" stroke-width="2" stroke-linecap="round"/>
<ellipse cx="3.431" cy="1.96649" rx="3.431" ry="1.96649" transform="matrix(0.970967 -0.239214 0.234768 0.972051 448.601 477.866)" fill="white" fill-opacity="0.63"/>
<path d="M187.878 684.334L196.944 654.242L258.335 679.487L247.075 710.406L187.878 684.334Z" fill="#EAA296"/>
<path d="M188.427 684.13L183.021 703.537C176.397 744.743 216.009 746.519 236.643 742.256L247.623 710.202L188.427 684.13Z" fill="white"/>
<path d="M209.761 740.393L245.278 723.673C267.133 754.8 258.131 787.253 250.898 799.589L78.5953 725.933C81.1628 719.842 87.303 704.523 96.1683 698.716C109.658 689.88 169.822 709.933 180.25 716.552C188.593 721.846 198.179 733.296 209.761 740.393Z" fill="#EC286F"/>
<path d="M83.0672 715.806L254.145 787.426C256.966 788.608 253.148 796.034 250.886 799.6L79.0384 725.801L83.0672 715.806Z" fill="#5158BF"/>
<path d="M168.161 712.557L187.655 738.641" stroke="#46274C" stroke-width="3" stroke-linecap="round"/>
<path d="M180.747 716.226L204.62 738.977" stroke="#46274C" stroke-width="3" stroke-linecap="round"/>
<path d="M84.0215 716.588L254.959 787.379" stroke="white" stroke-width="4" stroke-linecap="round"/>
<path d="M363.295 536.895L393.998 533.673L379.374 583.7L351.313 579.551L363.295 536.895Z" fill="#E97E77"/>
<path d="M363.048 538.135L341.83 536.151C304.814 535.574 313.263 563.484 320.823 575.733L336.588 579.742L350.708 579.742L363.048 538.135Z" fill="white"/>
<path d="M320.177 559.257L342.33 579.054C321.815 596.569 293.431 594.912 281.049 592.309L297.332 478.458C303.177 479.14 317.794 480.666 325.083 485.17C336.176 492.023 335.288 530.978 332.473 538.173C330.221 543.929 323.088 551.301 320.177 559.257Z" fill="#ECE9E8"/>
<path d="M307.105 479.713L292.218 592.541C291.972 594.402 284.661 593.157 281.036 592.302L297.562 478.704L307.105 479.713Z" fill="#46274C"/>
<path d="M332.622 530.35L315.746 545.735" stroke="#46274C" stroke-width="3" stroke-linecap="round"/>
<path d="M306.697 480.397L292.476 593.025" stroke="white" stroke-width="4" stroke-linecap="round"/>
<path d="M534.856 442.834L497.871 403.831C503.596 416.47 510.29 443.579 501.75 447.45L498.242 447.817C499.622 448.029 500.783 447.888 501.75 447.45L517.302 445.824L534.856 442.834Z" fill="#ECE9E8"/>
<path d="M539.802 443.17C530.637 443.827 524.239 446.587 497.908 448.474" stroke="#46274C" stroke-width="2"/>
<path d="M594.415 518.103C562.601 500.69 503.216 490.662 487.153 486.648C371.641 518.102 289.919 464.048 265.591 486.647C241.263 509.247 214.124 572.958 165.868 643.451L275.416 694.584L327.886 538.704H385.892C381.892 550.122 373.98 607.903 371.641 622.105C462.651 615.899 572.426 608.946 579.163 608.205C587.585 607.279 627.241 601.499 631.452 576.491C635.663 551.483 634.182 539.869 594.415 518.103Z" fill="#5158BF"/>
<path d="M458.8 491.859L398.372 492.659L399.896 504.805H431.737L463.866 501.838V496.858C463.866 494.071 461.587 491.822 458.8 491.859Z" fill="#EC286F" stroke="#141414" stroke-linecap="round"/>
<path d="M376.162 381.221L281.198 382.221C278.019 382.254 275.678 385.207 276.371 388.31L303.108 508.058L407.105 506.95L381.104 385.176C380.608 382.85 378.541 381.196 376.162 381.221Z" fill="#EC286F" stroke="#141414" stroke-linecap="round"/>
<ellipse cx="8.80396" cy="13.9245" rx="8.80396" ry="13.9245" transform="matrix(0.98927 -0.146101 0.147983 0.98899 325.378 429.281)" fill="white" fill-opacity="0.47"/>
<path d="M387.347 539.553C406.464 541.482 453.898 544.183 490.696 539.553" stroke="#46274C" stroke-opacity="0.73" stroke-width="2"/>
<path d="M281.715 469.117L298.154 462.295C301.285 458.935 297.811 450.817 295.38 449.179L293.675 446.976C291.816 441.715 290.366 436.528 291.818 432.158C293.111 428.27 301.653 413.679 298.361 410.984C295.728 408.827 289.72 415.048 288.072 416.82C290.195 410.261 290.751 402.597 286.594 402.851C283.268 403.054 282.34 406.87 281.579 410.143C278.87 395.536 275.773 390.184 274.097 395.961C268.673 414.658 261.841 427.626 281.715 469.117Z" fill="#EAA296"/>
<path d="M280.309 411.524C279.381 414.279 277.38 420.469 276.803 423.183" stroke="#46274C" stroke-width="2" stroke-linecap="round"/>
<path d="M288.901 415.639C286.349 419.615 281.27 428.401 281.378 431.74C281.486 435.079 282.085 436.435 282.371 436.696" stroke="#46274C" stroke-width="2" stroke-linecap="round"/>
<ellipse cx="3.78271" cy="1.64446" rx="3.78271" ry="1.64446" transform="matrix(0.350391 -0.934598 -0.982077 -0.19716 284.489 410.572)" fill="white" fill-opacity="0.63"/>
<ellipse cx="2.91421" cy="1.64617" rx="2.91421" ry="1.64617" transform="matrix(0.0311014 -0.998222 -0.992928 0.12517 277.03 400.12)" fill="white" fill-opacity="0.63"/>
<ellipse cx="3.41873" cy="1.7465" rx="3.41873" ry="1.7465" transform="matrix(0.799314 -0.599098 -0.697691 -0.718407 292.64 417.024)" fill="white" fill-opacity="0.63"/>
<path d="M301.643 615.757C333.395 607.821 347.99 588.643 351.318 580.046H340.335C330.15 588.18 315.123 592.197 308.882 593.189L301.643 615.757Z" fill="#E4B061"/>
<path d="M496.162 460.741L496.452 477.998C494.449 482.103 484.844 482.245 482.158 480.742L479.221 480.106C473.166 480.545 467.36 481.317 463.624 484.336C460.3 487.022 449.422 500.368 445.309 498.522C442.018 497.046 445.633 489.261 446.691 487.099C441.06 491.579 433.647 495.109 432.105 491.328C430.871 488.303 434.28 485.969 437.219 483.998C421.465 487.39 414.782 486.769 419.827 482.995C436.152 470.781 446.149 459.592 496.162 460.741Z" fill="#EAA296"/>
<path d="M438.345 482.295C440.732 480.378 446.131 476.145 448.63 474.554" stroke="#46274C" stroke-width="2" stroke-linecap="round"/>
<path d="M446.268 488.264C449.182 484.424 455.868 476.434 459.299 475.201C462.731 473.968 464.367 473.959 464.755 474.108" stroke="#46274C" stroke-width="2" stroke-linecap="round"/>
<ellipse cx="3.98829" cy="1.65055" rx="3.98829" ry="1.65055" transform="matrix(-0.753323 0.646833 -0.62661 -0.787854 439.205 486.375)" fill="white" fill-opacity="0.63"/>
<ellipse cx="3.17457" cy="1.60504" rx="3.17457" ry="1.60504" transform="matrix(-0.916246 0.389853 -0.314692 -0.952204 425.356 483.933)" fill="white" fill-opacity="0.63"/>
<path d="M488.92 558.366C479.063 553.353 469.977 549.71 461.285 544.015" stroke="#46274C" stroke-opacity="0.73" stroke-width="2"/>
<ellipse cx="3.36861" cy="1.88354" rx="3.36861" ry="1.88354" transform="matrix(-0.261878 0.959655 -0.957431 -0.307332 449.306 491.022)" fill="white" fill-opacity="0.63"/>
<path d="M492.994 487.06C478.222 490.788 477.515 478.307 460.425 487.575C463.908 481.996 473.668 478.009 480.572 479.323C486.096 480.374 491.679 479.556 492.312 479.353L492.994 487.06Z" fill="#E97E77"/>
<path d="M252.102 502.637C199.99 608.783 194.039 647.724 194.039 656.112L162.888 643.675C184.548 620.768 222.989 543.129 252.102 502.637Z" fill="#666EEB"/>
<path d="M406.944 717.59L405.195 681.065C371.858 685.664 350.981 713.135 343.705 726.651L467.623 804.483C471.591 798.548 481.687 783.854 483.073 773.474C485.181 757.679 446.494 726.739 437.247 723.463C429.849 720.843 417.008 721.397 406.944 717.59Z" fill="#EC286F"/>
<path d="M474.148 794.47L352.334 716.186C350.324 714.895 345.744 722.638 343.704 726.671L467.569 804.073L474.148 794.47Z" fill="#5158BF"/>
<path d="M444.993 729.708L416.617 732.694" stroke="#46274C" stroke-width="3" stroke-linecap="round"/>
<path d="M437.326 722.884L410.01 720.435" stroke="#46274C" stroke-width="3" stroke-linecap="round"/>
<path d="M289.668 464.786C300.123 459.808 294.505 450.378 293.089 446.297C296.495 448.683 299.238 452.419 299.34 458.907C299.479 467.754 289.235 473.53 283.485 471.009C278.886 468.993 276.177 457.716 274.98 452.988C276.872 457.156 282.526 468.187 289.668 464.786Z" fill="#E97E77"/>
<path d="M473.156 794.282L352.065 715.551" stroke="white" stroke-width="4" stroke-linecap="round"/>
<path d="M489.875 492.126L485.793 447.396L498.092 446.318L501.951 492.267L489.875 492.126Z" fill="#5158BF"/>
</svg>
