<svg width="185" height="240" viewBox="0 0 185 240" fill="none" xmlns="http://www.w3.org/2000/svg">
<path d="M16.4668 99.4392C18.7779 106.594 23.3462 123.046 23.1303 131.621" stroke="#756662" stroke-width="4"/>
<path d="M42.664 149.192C42.0434 164.572 44.9447 197.363 61.5147 205.492" stroke="#FBFAFA" stroke-opacity="0.5" stroke-width="3"/>
<path d="M38.4742 150.016C39.8705 166.677 37.6829 201.098 17.7617 205.492" stroke="#FBFAFA" stroke-opacity="0.5" stroke-width="3"/>
<path d="M11.7746 68.4194C7.40975 66.4355 1.58253 68.2673 0.533283 70.3962C-0.0661894 72.9815 -0.799648 74.0641 5.37005 88.5937C11.5397 103.123 7.52992 108.341 13.723 110.392C18.6775 112.033 27.7418 107.756 28.5615 106.894C36.4858 101.936 17.2306 70.8993 11.7746 68.4194Z" fill="#DFA654"/>
<path d="M13.5695 67.3548C9.8223 64.7694 2.90496 68.2896 1.10337 69.2613C0.178733 71.5308 2.62799 74.6545 8.62329 87.1245C13.8783 98.0549 11.9207 107.502 20.9137 109.023C26.0937 109.899 29.9864 106.083 30.8061 105.221C38.7304 100.263 18.471 70.7367 13.5695 67.3548Z" fill="#F2CD87"/>
<path d="M15.8164 136.245C15.8164 130.498 21.3779 127.425 23.0108 127.425C36.9812 128.246 86.3547 130.221 79.0974 141.989C71.84 153.757 48.641 157.472 31.2544 150.996C16.5583 145.523 15.8164 140.432 15.8164 136.245Z" fill="#EABD7E"/>
<path d="M17.7656 134.417C17.7656 128.67 21.9386 127.577 23.5715 127.577C37.5419 128.398 87.2548 128.396 79.9974 140.164C72.7401 151.932 47.3393 153.848 32.6432 148.374C17.947 142.901 17.7656 138.603 17.7656 134.417Z" fill="#F2CD87"/>
<ellipse cx="33.206" cy="223.991" rx="20.5341" ry="2.73734" fill="#EDC9BC"/>
<path d="M31.2559 195.333H51.2701" stroke="#FBFAFA" stroke-opacity="0.5" stroke-width="2"/>
<ellipse cx="62.2833" cy="214.565" rx="10.9415" ry="10.6452" fill="#DFA654"/>
<ellipse cx="63.7825" cy="214.259" rx="10.0422" ry="10.6451" fill="#F2CD87"/>
<ellipse cx="63.783" cy="214.106" rx="5.24593" ry="5.62675" fill="#46274C"/>
<ellipse cx="14.9171" cy="214.412" rx="11.2413" ry="10.7973" fill="#DFA654"/>
<ellipse cx="17.0182" cy="214.557" rx="10.0456" ry="10.7108" fill="#F2CD87"/>
<ellipse cx="16.7731" cy="214.26" rx="5.64031" ry="5.77882" fill="#8697FB"/>
<path d="M127.344 197.142L125.791 189.795L110.952 196.606L113.003 204.137L127.344 197.142Z" fill="#EAA296"/>
<path d="M128.084 197.314L128.983 202.068C129.756 212.206 120.444 213.018 115.692 212.157L113.725 204.325L128.084 197.314Z" fill="white"/>
<path d="M122.363 211.287L114.538 207.297C107.972 213.676 108.762 220.706 109.978 223.423L154.483 209.767C154.123 208.437 153.296 205.096 151.412 203.752C148.545 201.706 133.245 205.267 130.46 206.554C128.232 207.584 125.445 209.912 122.363 211.287Z" fill="#EC286F"/>
<path d="M153.922 209.598L110.921 221.132C110.212 221.322 110.8 222.742 111.182 223.429L154.453 211.497L153.922 209.598Z" fill="#8697FB"/>
<path d="M133.42 205.52L127.519 211.093" stroke="#46274C" stroke-width="3" stroke-linecap="round"/>
<path d="M130.223 205.923L123.512 210.518" stroke="#46274C" stroke-width="3" stroke-linecap="round"/>
<path d="M153.285 209.75L110.793 220.31" stroke="white" stroke-width="4" stroke-linecap="round"/>
<path d="M77.7451 209.996L80.4822 202.053L65.458 194.757L63.0046 203.313L77.7451 209.996Z" fill="#EAA296"/>
<path d="M77.1786 209.574L75.3333 214.593C70.5205 224.27 62.9582 216.639 59.7787 211.614L62.4483 202.91L77.1786 209.574Z" fill="white"/>
<path d="M64.795 215.759L61.4219 206.377C52.4545 207.138 48.6143 213.968 47.8152 217.288L89.9331 238.383C90.5017 236.935 91.9868 233.352 91.4167 230.752C90.5491 226.796 76.7852 218.537 73.8767 217.601C71.5498 216.852 67.9831 216.838 64.795 215.759Z" fill="#EC286F"/>
<path d="M90.141 236.202L49.2521 216.197C48.5777 215.867 48.0129 217.658 47.8148 218.595L89.1917 238.414L90.141 236.202Z" fill="#8697FB"/>
<path d="M76.75 219.053L68.948 219.479" stroke="#46274C" stroke-width="3" stroke-linecap="round"/>
<path d="M74.0371 217.289L66.1046 216.343" stroke="#46274C" stroke-width="3" stroke-linecap="round"/>
<path d="M89.8477 235.528L49.3037 216.152" stroke="white" stroke-width="4" stroke-linecap="round"/>
<path d="M20.1758 88.5082C27.6832 79.3558 38.1442 71.5073 42.4362 68.7272C46.2433 69.8343 51.9952 71.3253 53.5665 69.9081C55.5307 68.1367 63.9693 74.632 71.3167 83.7106C74.9402 88.1879 79.828 94.8067 82.3014 97.2178C84.4838 92.7892 89.0669 83.7106 92.3405 78.4701L105.144 83.7106C100.925 113.825 90.0853 124.675 80.3373 124.675C72.5388 124.675 66.7579 116.704 64.8422 112.718L64.8422 124.675L33.5611 124.675C6.28114 128.292 4.17148 116.556 5.99015 110.799C7.80882 105.042 10.7914 99.9487 20.1758 88.5082Z" fill="white"/>
<path d="M93.0792 133.316C87.7326 132.813 68.7751 126.98 56.3954 128.972L39.9877 129.219C40.32 133.194 52.4991 131.112 58.5042 135.009C64.5093 138.907 90.1078 133.207 94.0126 149.189L104.27 200.193L136.088 197.666C125.979 177.583 111.958 146.572 105.874 138.003C104.383 135.904 99.7625 133.945 93.0792 133.316Z" fill="#8697FB"/>
<path d="M100.794 134.047C95.4507 130.794 69.9119 132.793 55.8462 127.398L29.4318 124.806C27.6482 127.677 26.4791 130.775 29.6191 136.279C36.0605 147.571 55.1458 151.591 78.3781 147.188L57.0092 194.253L91.8594 208.492C99.2338 171.112 101.36 151.118 101.89 149.496C102.933 146.306 107.473 138.113 100.794 134.047Z" fill="#8697FB"/>
<path d="M71.08 125.857L33.7829 122.312L33.4368 123.637L71.0316 126.87L71.08 125.857Z" fill="#46274C"/>
<rect width="0.440811" height="3.64665" transform="matrix(0.940668 0.31155 0.11684 1.01631 41.1484 122.777)" fill="white"/>
<rect width="0.447398" height="3.46733" transform="matrix(0.942066 0.306506 0.118916 1.01611 60.4707 122.289)" fill="white"/>
<rect width="0.440811" height="3.64665" transform="matrix(0.940668 0.31155 0.11684 1.01631 36.7988 122.923)" fill="white"/>
<path d="M51.4922 73.1382L49.8007 70.1721L47.348 73.1382C45.8594 85.6307 44.5852 108.411 44.1341 118.24H47.94C47.737 114.123 50.2235 86.4565 51.4922 73.1382Z" fill="#8697FB"/>
<path d="M44.5574 65.9398C49.362 65.4102 55.8958 65.564 57.0332 65.9398L49.8261 69.9434L44.5574 65.9398Z" fill="#46274C"/>
<path d="M58.9932 50.4785C59.2787 49.0923 58.8742 47.706 58.6362 47.1862C56.2568 46.031 51.1411 44.0671 49.7135 45.4534C48.2858 46.8396 48.8807 50.9984 49.3566 52.9045C46.8582 47.1862 41.8615 50.132 41.8615 53.5976C41.8615 56.3701 44.9547 57.0633 46.5013 57.0633V68.6731C50.3559 71.8615 53.6989 70.0016 54.8886 68.6731L55.2456 63.4747C60.9561 61.7419 60.4207 56.3701 59.7069 54.6373C58.9931 52.9045 58.6362 52.2114 58.9932 50.4785Z" fill="#EAA296"/>
<ellipse cx="0.913284" cy="1.88409" rx="0.913284" ry="1.88409" transform="matrix(0.986681 -0.162668 0.134436 0.990922 57.8945 53.8077)" fill="#E9746E" fill-opacity="0.78"/>
<ellipse cx="1.55489" cy="2.27226" rx="1.55489" ry="2.27226" transform="matrix(0.984128 0.177462 -0.116232 0.993222 50.5488 53.1604)" fill="#E9746E" fill-opacity="0.78"/>
<path d="M49.176 62.2625C51.4602 63.926 54.2917 63.7642 55.4219 63.4754L55.0422 67.0319C51.9014 66.4774 49.8303 63.5332 49.176 62.2625Z" fill="#46274C"/>
<path d="M45.0736 49.7859C47.6433 49.37 48.9613 52.1517 49.3777 53.4225C49.3181 51.6896 49.5349 47.8104 50.2487 47.5332C51.1409 47.1866 56.4945 47.5332 58.636 47.1866C60.7774 46.84 62.2051 46.1469 62.3836 44.2408C62.5263 42.7159 61.8482 41.6413 60.599 41.4682C55.8291 40.8074 47.9289 41.1217 46.5012 42.1614C45.3591 42.9931 45.0736 44.5873 45.0736 45.2804V49.7859Z" fill="#472E2C"/>
<path d="M43.8253 52.0383L46.9258 53.1608L44.896 54.291" stroke="#46274C" stroke-width="2" stroke-linecap="round"/>
<path d="M54.7891 51.5907C54.6633 52.5212 53.9967 54.3823 52.3364 54.3823C50.261 54.3823 49.8837 52.3351 49.8837 51.5907" stroke="white" stroke-width="2"/>
<path d="M60.8809 51.5907C60.6922 52.3887 59.9752 54.0585 58.6168 54.3532C57.2584 54.6478 56.2899 52.6343 55.9755 51.5907" stroke="white" stroke-width="2"/>
<path d="M60.8809 51.5907H48.7019" stroke="white" stroke-width="2" stroke-linecap="round"/>
<path d="M42.251 68.8943L44.8005 65.7532L49.7763 70.0719L57.0842 65.8119L58.5133 71.4808C46.7292 70.2044 43.4426 70.1387 42.251 68.8943Z" fill="white"/>
<path d="M47.4303 73.2246C45.7147 87.7831 44.1319 111.784 44.1319 118.676" stroke="#46274C" stroke-width="2"/>
<path d="M51.3606 72.825L47.9381 116.321" stroke="#46274C" stroke-width="2"/>
<path d="M58.1758 71.4806L53.1562 75.8127L49.7268 70.1997L45.8044 75.2776L42.1722 68.5048" stroke="#46274C" stroke-width="2"/>
<ellipse cx="0.828237" cy="0.826555" rx="0.828237" ry="0.826555" transform="matrix(-0.922657 -0.385622 -0.365631 0.93076 50.3535 74.6426)" fill="white"/>
<ellipse cx="0.828237" cy="0.826555" rx="0.828237" ry="0.826555" transform="matrix(-0.922657 -0.385622 -0.365631 0.93076 49.7227 83.0371)" fill="white"/>
<path d="M62.743 41.3962C64.011 42.7773 64.0376 47.3238 58.3628 46.7679" stroke="#472E2C" stroke-width="2" stroke-linecap="round"/>
<path d="M81.8555 97.9143C81.4608 100.561 80.6714 106.307 80.6714 108.121" stroke="#46274C" stroke-width="2" stroke-linecap="round"/>
<ellipse cx="1.05886" cy="0.618331" rx="1.05886" ry="0.618331" transform="matrix(-0.969775 -0.244003 -0.230139 0.973158 49.7656 120.671)" fill="white" fill-opacity="0.63"/>
<path d="M119.247 93.4169H133.936C136.928 93.4169 139.25 96.0277 138.901 98.9997L135.863 124.893H108.111L114.371 97.3104C114.887 95.0332 116.912 93.4169 119.247 93.4169Z" fill="white" stroke="#46274C" stroke-width="2" stroke-linecap="round"/>
<path d="M94.8841 121.865L110.508 122.053L110.085 125.111H101.26L92.3546 124.364C92.3546 122.972 93.4921 121.848 94.8841 121.865Z" fill="#EC286F"/>
<path d="M120.935 93.2161H138.512C141.723 93.2161 144.101 96.1995 143.386 99.3298L137.464 125.248L109.819 124.882L116.057 97.12C116.57 94.8378 118.596 93.2161 120.935 93.2161Z" fill="#EC286F"/>
<ellipse cx="2.46265" cy="3.60874" rx="2.46265" ry="3.60874" transform="matrix(-1 0 0 1 129.789 105.129)" fill="white" fill-opacity="0.47"/>
<rect x="46.2832" y="124.438" width="120.539" height="2.75995" rx="1.37997" fill="#E9C5B8"/>
<path d="M34.4632 116.41L34.9272 121.916C35.6769 123.161 38.6459 122.903 39.4266 122.339L40.3125 122.044C42.1954 121.993 44.012 122.056 45.2617 122.9C46.3737 123.65 50.1588 127.558 51.3692 126.841C52.3374 126.267 50.9718 123.901 50.576 123.246C52.4577 124.495 54.8585 125.386 55.2133 124.133C55.4971 123.13 54.3699 122.494 53.3996 121.959C58.3706 122.543 60.4129 122.134 58.735 121.091C53.3051 117.716 49.8611 114.467 34.4632 116.41Z" fill="#EAA296"/>
<path d="M52.9883 121.511C52.1879 120.978 50.3812 119.806 49.557 119.38" stroke="#46274C" stroke-width="2" stroke-linecap="round"/>
<path d="M50.7422 123.597C49.7167 122.471 47.3903 120.149 46.2885 119.866C45.1867 119.583 44.6802 119.632 44.5647 119.691" stroke="#46274C" stroke-width="2" stroke-linecap="round"/>
<ellipse cx="1.24203" cy="0.516994" rx="1.24203" ry="0.516994" transform="matrix(0.805052 0.579391 0.531275 -0.855444 52.8008 122.832)" fill="white" fill-opacity="0.63"/>
<ellipse cx="0.985907" cy="0.509792" rx="0.985907" ry="0.509792" transform="matrix(0.947169 0.305075 0.20881 -0.98063 56.9883 121.684)" fill="white" fill-opacity="0.63"/>
<ellipse cx="1.05724" cy="0.574926" rx="1.05724" ry="0.574926" transform="matrix(0.348849 0.930551 0.917974 -0.412074 49.8281 124.568)" fill="white" fill-opacity="0.63"/>
<path d="M36.2822 124.529C40.9229 125.222 40.8279 121.407 46.3211 123.716C45.1091 122.124 42.0049 121.202 39.9122 121.807C38.2381 122.291 36.4991 122.208 36.299 122.166L36.2822 124.529Z" fill="#E97E77"/>
<path d="M97.0646 62.254C96.9666 63.8262 96.1417 68.0755 95.7414 70.0037L106.959 69.6173C109.228 66.6516 108.54 60.9429 110.061 61.2229C111.582 61.5028 111.614 55.8816 110.899 54.3966C110.328 53.2087 108.853 53.146 108.188 53.2632C109.253 51.2179 108.829 49.6173 107.886 49.6974C107.131 49.7615 104.872 52.0749 103.836 53.2236C102.594 52.4198 101.347 54.3635 100.884 54.8422C97.7268 44.7455 94.0233 45.9195 94.5887 48.0536C95.1541 50.1876 97.187 60.2889 97.0646 62.254Z" fill="#EAA296"/>
<path d="M106.069 79.2971L108.538 69.5844L98.2285 69.7199L94.0364 75.5191L106.069 79.2971Z" fill="#EAA296"/>
<path d="M108.195 69.3495C105.305 68.6382 98.3029 68.2702 97.1322 68.5115L95.5925 73.5417C96.9193 73.2829 105.354 74.0685 106.851 74.2862L108.195 69.3495Z" fill="#141414"/>
<path d="M97.6358 72.7137C98.6535 71.0103 99.1134 68.8344 99.1428 68.0411L98.379 68.1242L96.9081 72.8696L97.6358 72.7137Z" fill="white"/>
<ellipse cx="4.30414" cy="1.85439" rx="4.30414" ry="1.85439" transform="matrix(-0.330025 0.965183 0.962832 0.17946 95.8809 65.5468)" fill="#46274C"/>
<ellipse cx="4.30414" cy="1.85439" rx="4.30414" ry="1.85439" transform="matrix(-0.330025 0.965183 0.962832 0.17946 95.2324 65.4528)" fill="white"/>
<path d="M95.1928 68.5857L95.3177 69.6708L93.7191 71.2866" stroke="#141414" stroke-width="2" stroke-linecap="round"/>
<path d="M105.009 84.8035L91.7535 79.2014L93.8429 74.6365L106.761 80.1661L105.009 84.8035Z" fill="#8697FB"/>
<path d="M107.515 55.0656C107.473 57.4088 107.934 62.0733 110.088 62.3724C110.139 62.3696 110.186 62.3747 110.228 62.3854C110.18 62.3831 110.134 62.3787 110.088 62.3724C109.752 62.3906 109.244 62.7516 109.14 64.1353C108.989 66.1282 108.532 67.1379 108.008 67.2795C108.344 65.384 108.197 61.2619 104.91 59.9367C105.515 58.8589 106.882 56.3759 107.515 55.0656Z" fill="#E97E77"/>
<path d="M101.083 57.3645C101.863 55.7926 102.836 54.3042 104.068 52.9255C106.67 50.0141 107.072 49.9328 107.891 50.1262C108.711 50.3196 108.851 53.0497 104.918 59.8951C106.164 60.1539 108.518 61.9506 107.968 67.0669" stroke="#46274C" stroke-width="2" stroke-linecap="round"/>
<path d="M106.743 77.4362L96.5586 75.7385L106.234 80.3147L106.743 77.4362Z" fill="#E97E77"/>
<path d="M34.5794 97.3656L22.5762 109.618L28.3232 110.209L33.7792 110.504C30.7965 110.342 32.6152 101.794 34.5794 97.3656Z" fill="#E3E3E2"/>
<path d="M21.9238 109.68C24.7833 110.309 29.0476 110.713 34.4953 110.938" stroke="#46274C" stroke-width="2"/>
<path d="M37.1984 124.452L38.306 110.925L34.4947 110.309L33.4866 124.453L37.1984 124.452Z" fill="#8697FB"/>
<path d="M42.625 225.732L69.8399 126.607H76.6506L60.688 178.06L45.4378 225.732H42.625Z" fill="#E9C5B8"/>
<path d="M184.102 228.461L154.085 126.607H146.494L164.285 178.086L180.55 228.461H184.102Z" fill="#E9C5B8"/>
<path d="M98.1406 163.892C101.605 143.458 103.498 135.93 103.792 132.972C104.746 133.331 105.7 133.779 107.095 135.213C106.449 138.439 101.003 156.005 98.1406 163.892Z" fill="#7C4CEB"/>
<path d="M127.665 9.64531L133.76 4.89392H104.477V21.9334H127.665V9.64531Z" fill="#EC286F"/>
<path d="M131.581 5.78276L137.676 1.03137H108.393V18.0708H131.581V5.78276Z" fill="white" fill-opacity="0.68" stroke="#EC286F" stroke-opacity="0.5" stroke-width="2" stroke-linecap="round"/>
<rect width="8.62142" height="0.655364" transform="matrix(-1 0 0 1 126.678 4.80029)" fill="#EC286F"/>
<rect width="5.05394" height="0.655364" transform="matrix(-1 0 0 1 126.678 9.05981)" fill="#EC286F"/>
<rect width="5.05394" height="0.655364" transform="matrix(-1 0 0 1 117.758 12.6643)" fill="#EC286F"/>
<rect width="5.05394" height="0.655364" transform="matrix(-1 0 0 1 117.459 4.80029)" fill="#EC286F"/>
<rect width="7.13497" height="0.655364" transform="matrix(-1 0 0 1 119.838 9.05981)" fill="#EC286F"/>
<rect width="8.32414" height="0.655364" transform="matrix(-1 0 0 1 126.678 12.6643)" fill="#EC286F"/>
<path d="M76.6526 127.516H70.6086L70.3848 128.036L76.1303 128.425L76.6526 127.516Z" fill="#46274C"/>
<path d="M146.496 127.516H154.149L154.555 128.902L147.103 129.335L146.496 127.516Z" fill="#46274C"/>
</svg>
