<svg width="1064" height="522" viewBox="0 0 1064 522" fill="none" xmlns="http://www.w3.org/2000/svg">
<path d="M78 74.0826L78.6413 75.4386L78.6432 75.4377L78 74.0826ZM398.72 2.10378L398.768 0.604542L398.72 2.10378ZM543.097 74.0826L544.573 73.8146L543.097 74.0826ZM463.937 141.063L464.638 139.737L463.937 141.063ZM445.946 57.0876L447.15 57.982L445.946 57.0876ZM835.899 249.531L837.268 250.143L835.899 249.531ZM705.915 334.505L706.035 333.01L705.915 334.505ZM632.152 217.04L633.608 217.402L632.152 217.04ZM795.5 176.495L796.51 175.386L795.5 176.495ZM1063.22 515.314C1063.95 514.915 1064.21 514.003 1063.81 513.277L1057.31 501.449C1056.91 500.723 1056 500.458 1055.27 500.858C1054.54 501.257 1054.28 502.169 1054.68 502.895L1060.46 513.409L1049.95 519.193C1049.22 519.593 1048.96 520.505 1049.36 521.231C1049.76 521.956 1050.67 522.221 1051.4 521.822L1063.22 515.314ZM78.6432 75.4377C127.991 52.0167 192.412 33.552 252.343 21.1927C312.289 8.83049 367.586 2.60892 398.672 3.60301L398.768 0.604542C367.335 -0.40063 311.772 5.87413 251.737 18.2546C191.689 30.638 127.009 49.1623 77.3568 72.7274L78.6432 75.4377ZM398.672 3.60301C435.285 4.77385 468.562 8.52052 493.937 18.9899C519.222 29.4216 536.56 46.4729 541.621 74.3505L544.573 73.8146C539.289 44.7092 521.079 26.9428 495.082 16.2167C469.175 5.52832 435.436 1.77715 398.768 0.604542L398.672 3.60301ZM541.621 74.3505C545.705 96.8451 537.664 119.199 522.996 132.906C508.39 146.556 487.201 151.665 464.638 139.737L463.236 142.389C487 154.953 509.564 149.565 525.044 135.098C540.462 120.689 548.838 97.3064 544.573 73.8146L541.621 74.3505ZM464.638 139.737C453.619 133.911 443.503 121.152 439.035 105.928C434.581 90.755 435.782 73.2885 447.15 57.982L444.742 56.1932C432.722 72.3773 431.484 90.8534 436.156 106.773C440.813 122.641 451.387 136.124 463.236 142.389L464.638 139.737ZM447.15 57.982C467.202 30.9829 508.187 13.8228 556.163 8.34275C604.071 2.87068 658.595 9.09397 705.34 28.482L706.489 25.7109C659.232 6.11056 604.19 -0.1625 555.823 5.36213C507.525 10.8788 465.526 28.2084 444.742 56.1932L447.15 57.982ZM705.34 28.482C752.099 47.8758 794.234 81.1839 819.741 120.572C845.234 159.938 854.061 205.259 834.53 248.918L837.268 250.143C857.317 205.328 848.153 158.926 822.26 118.941C796.38 78.9777 753.733 45.3056 706.489 25.7109L705.34 28.482ZM834.53 248.918C822.065 276.782 807.225 299.166 786.922 313.902C766.658 328.608 740.792 335.809 706.035 333.01L705.794 336C741.122 338.845 767.734 331.534 788.684 316.33C809.594 301.154 824.704 278.229 837.268 250.143L834.53 248.918ZM706.035 333.01C666.434 329.821 616.316 286.88 633.608 217.402L630.696 216.678C612.906 288.159 664.566 332.68 705.794 336L706.035 333.01ZM633.608 217.402C639.121 195.249 662.648 170.07 693.306 158.068C723.836 146.116 761.22 147.323 794.49 177.604L796.51 175.386C762.28 144.231 723.651 142.967 692.212 155.275C660.901 167.533 636.503 193.345 630.696 216.678L633.608 217.402ZM794.49 177.604C820.901 201.642 837.767 230.86 851.46 262.223C858.308 277.907 864.353 294.106 870.407 310.457C876.456 326.795 882.516 343.288 889.375 359.5C903.097 391.932 920.06 423.334 946.73 450.427C973.412 477.532 1009.74 500.252 1062.08 515.441L1062.92 512.559C1011.01 497.498 975.152 475.023 948.868 448.322C922.572 421.61 905.788 390.594 892.138 358.331C885.31 342.195 879.276 325.771 873.221 309.415C867.169 293.071 861.097 276.796 854.21 261.022C840.432 229.467 823.358 199.822 796.51 175.386L794.49 177.604ZM77.3588 72.7265L0.358753 109.139L1.64125 111.851L78.6412 75.4386L77.3588 72.7265Z" fill="#FBFAFA" fill-opacity="0.5"/>
</svg>
