<svg width="188" height="205" viewBox="0 0 188 205" fill="none" xmlns="http://www.w3.org/2000/svg">
<path d="M123.5 94.5075L123.721 94.059L123.5 94.5075ZM88 165.007L88.4406 164.77L88 165.007ZM101.5 124.007L101.314 123.542L101.5 124.007ZM159 138.507L159.383 138.185L159 138.507ZM186.426 205.002C186.699 205.043 186.954 204.855 186.994 204.581L187.662 200.131C187.703 199.858 187.515 199.604 187.242 199.563C186.969 199.522 186.714 199.71 186.673 199.983L186.08 203.939L182.124 203.345C181.851 203.304 181.596 203.493 181.555 203.766C181.514 204.039 181.703 204.293 181.976 204.334L186.426 205.002ZM-11.9872 1.5015C-10.5254 1.46402 -8.93696 2.1317 -7.21161 3.47109C-5.49015 4.80747 -3.68096 6.77514 -1.79001 9.24409C1.99169 14.1817 6.03691 21.0387 10.3078 28.6249C18.8278 43.7583 28.2384 61.7883 38.1274 72.8409L38.8726 72.1741C29.0777 61.2266 19.7382 43.3371 11.1792 28.1343C6.91062 20.5523 2.83408 13.637 -0.996104 8.63605C-2.91109 6.13571 -4.78037 4.09251 -6.5984 2.68117C-8.41254 1.27285 -10.2246 0.455976 -12.0128 0.501828L-11.9872 1.5015ZM38.1274 72.8409C48.1235 84.0131 60.7041 85.1323 75.0494 85.6946C89.4212 86.2579 105.64 86.2608 123.279 94.9559L123.721 94.059C105.86 85.2541 89.4208 85.2571 75.0886 84.6954C60.7299 84.1326 48.5605 83.0018 38.8726 72.1741L38.1274 72.8409ZM123.279 94.9559C134.53 100.502 142.471 114.079 145.406 128.712C148.341 143.346 146.23 158.833 137.632 168.168L138.368 168.845C147.27 159.18 149.354 143.31 146.386 128.515C143.419 113.72 135.359 99.7961 123.721 94.059L123.279 94.9559ZM137.632 168.168C129.011 177.528 118.366 179.738 109.04 178.077C99.6834 176.41 91.7072 170.858 88.4406 164.77L87.5594 165.243C91.0001 171.655 99.2739 177.353 108.865 179.061C118.488 180.775 129.489 178.485 138.368 168.845L137.632 168.168ZM88.4406 164.77C79.9819 149.006 86.1106 130.701 101.686 124.471L101.314 123.542C85.1306 130.016 78.8473 149.007 87.5594 165.243L88.4406 164.77ZM101.686 124.471C110.317 121.018 121.332 120.761 131.82 123.305C142.306 125.849 152.202 131.179 158.617 138.828L159.383 138.185C152.798 130.334 142.694 124.914 132.055 122.333C121.418 119.753 110.183 119.995 101.314 123.542L101.686 124.471ZM158.617 138.828C161.158 141.858 163.09 146.026 164.822 150.981C166.553 155.935 168.065 161.618 169.794 167.669C173.245 179.747 177.539 193.225 186.098 204.805L186.902 204.21C178.461 192.789 174.205 179.467 170.756 167.395C169.035 161.371 167.51 155.641 165.766 150.651C164.022 145.662 162.042 141.356 159.383 138.185L158.617 138.828Z" fill="#FBFAFA" fill-opacity="0.4"/>
</svg>
