<svg width="31" height="30" viewBox="0 0 31 30" fill="none" xmlns="http://www.w3.org/2000/svg">
<rect x="1.5" y="1" width="28" height="28" rx="14" stroke="#FBFAFA" stroke-width="2"/>
<path d="M15.5 19C15.7762 18.9922 16.0287 18.8904 16.2339 18.6712L22.2317 12.5812C22.4053 12.409 22.5 12.1898 22.5 11.9315C22.5 11.4149 22.0896 11 21.5688 11C21.3162 11 21.0716 11.1018 20.8901 11.2818L15.5079 16.7691L10.1099 11.2818C9.92841 11.1096 9.69166 11 9.43123 11C8.91037 11 8.5 11.4149 8.5 11.9315C8.5 12.1898 8.5947 12.409 8.76832 12.5812L14.774 18.6712C14.987 18.8904 15.2238 19 15.5 19Z" fill="#FBFAFA"/>
</svg>
