<svg width="34" height="34" viewBox="0 0 34 34" fill="none" xmlns="http://www.w3.org/2000/svg">
<path d="M16.9847 33.8842C25.667 33.8842 32.8333 26.3125 32.8333 17.1553C32.8333 7.99817 25.6517 0.426514 16.9694 0.426514C8.30248 0.426514 1.15149 7.99817 1.15149 17.1553C1.15149 26.3125 8.3178 33.8842 16.9847 33.8842ZM7.76654 7.01126C9.28249 5.47428 11.1506 4.29323 13.2178 3.6299C12.1306 4.7786 11.2119 6.41265 10.5228 8.38645C9.45093 8.03052 8.51686 7.56134 7.76654 7.01126ZM20.767 3.64608C22.8342 4.30941 24.687 5.47428 26.2029 7.02744C25.4526 7.57752 24.5339 8.03052 23.462 8.40263C22.7729 6.41265 21.8542 4.79477 20.767 3.64608ZM12.6513 8.95271C13.4935 6.57444 14.6419 4.82713 15.9129 4.19616V9.30864C14.7491 9.26011 13.6619 9.14686 12.6513 8.95271ZM18.0566 4.19616C19.3276 4.82713 20.4913 6.57444 21.3182 8.95271C20.3229 9.14686 19.2204 9.26011 18.0566 9.30864V4.19616ZM3.67807 16.0228C3.89245 13.2886 4.85714 10.7647 6.35778 8.69385C7.27654 9.42189 8.48623 10.0529 9.895 10.522C9.49687 12.1885 9.25187 14.049 9.1753 16.0228H3.67807ZM24.7942 16.0228C24.7329 14.049 24.4726 12.1885 24.0745 10.522C25.4832 10.0529 26.6929 9.42189 27.6117 8.69385C29.1123 10.7647 30.077 13.2886 30.2914 16.0228H24.7942ZM18.0566 16.0228V11.5737C19.4194 11.5251 20.7363 11.3633 21.946 11.1045C22.2982 12.6091 22.5432 14.2755 22.6045 16.0228H18.0566ZM11.365 16.0228C11.4416 14.2755 11.6713 12.6091 12.0234 11.1045C13.2485 11.3633 14.55 11.5251 15.9129 11.5737V16.0228H11.365ZM3.67807 18.2878H9.1753C9.23655 20.294 9.49687 22.1707 9.91031 23.8695C8.51686 24.3387 7.30716 24.9535 6.38841 25.6654C4.87246 23.5783 3.89245 21.0382 3.67807 18.2878ZM11.365 18.2878H15.9129V22.8179C14.5653 22.8664 13.2485 23.0282 12.0388 23.2871C11.6713 21.7501 11.4416 20.0513 11.365 18.2878ZM18.0566 22.8179V18.2878H22.6198C22.5432 20.0513 22.2982 21.7501 21.9307 23.2871C20.721 23.0282 19.4194 22.8664 18.0566 22.8179ZM24.0745 23.8695C24.4726 22.1707 24.7329 20.294 24.8095 18.2878H30.2914C30.077 21.0382 29.097 23.5783 27.5811 25.6654C26.6623 24.9535 25.4679 24.3387 24.0745 23.8695ZM18.0566 25.0829C19.2204 25.1315 20.2923 25.2447 21.3029 25.4388C20.476 27.7686 19.3276 29.4997 18.0566 30.1307V25.0829ZM12.6819 25.4388C13.6772 25.2447 14.7644 25.1315 15.9129 25.0829V30.1307C14.6572 29.4997 13.5088 27.7686 12.6819 25.4388ZM7.81248 27.3318C8.5628 26.7979 9.48155 26.3449 10.5381 25.9889C11.2119 27.9304 12.1306 29.5321 13.1872 30.6646C11.1506 30.0174 9.31312 28.8526 7.81248 27.3318ZM23.4467 25.9889C24.5032 26.3449 25.422 26.7979 26.1723 27.3318C24.6564 28.8526 22.8188 30.0174 20.7823 30.6646C21.8542 29.5321 22.7576 27.9304 23.4467 25.9889Z" fill="#FBFAFA"/>
</svg>
