<svg width="29" height="29" viewBox="0 0 29 29" fill="none" xmlns="http://www.w3.org/2000/svg">
<rect x="1.49996" y="0.833333" width="26.6667" height="26.6667" rx="5.83333" stroke="white" stroke-width="1.66667"/>
<path d="M5.5125 8.70833H7.25321C7.88068 8.70833 8.40694 8.19219 8.40694 7.55461C8.40694 6.91702 7.88068 6.40088 7.25321 6.40088H5.5125C4.88504 6.40088 4.3689 6.91702 4.3689 7.55461C4.3689 8.19219 4.88504 8.70833 5.5125 8.70833ZM11.5341 8.52617H24.3061C24.8526 8.52617 25.2878 8.10111 25.2878 7.55461C25.2878 7.0081 24.8627 6.58305 24.3061 6.58305H11.5341C10.9876 6.58305 10.5626 7.0081 10.5626 7.55461C10.5626 8.10111 10.9876 8.52617 11.5341 8.52617ZM5.5125 14.9324H7.25321C7.88068 14.9324 8.40694 14.4162 8.40694 13.7787C8.40694 13.1411 7.88068 12.6249 7.25321 12.6249H5.5125C4.88504 12.6249 4.3689 13.1411 4.3689 13.7787C4.3689 14.4162 4.88504 14.9324 5.5125 14.9324ZM11.5341 14.7502H24.3061C24.8526 14.7502 25.2878 14.3252 25.2878 13.7787C25.2878 13.2322 24.8627 12.8071 24.3061 12.8071H11.5341C10.9876 12.8071 10.5626 13.2322 10.5626 13.7787C10.5626 14.3252 10.9876 14.7502 11.5341 14.7502ZM5.5125 21.1564H7.25321C7.88068 21.1564 8.40694 20.6403 8.40694 20.0027C8.40694 19.3651 7.88068 18.849 7.25321 18.849H5.5125C4.88504 18.849 4.3689 19.3651 4.3689 20.0027C4.3689 20.6403 4.88504 21.1564 5.5125 21.1564ZM11.5341 20.9743H24.3061C24.8526 20.9743 25.2878 20.5492 25.2878 20.0027C25.2878 19.4562 24.8627 19.0312 24.3061 19.0312H11.5341C10.9876 19.0312 10.5626 19.4562 10.5626 20.0027C10.5626 20.5492 10.9876 20.9743 11.5341 20.9743Z" fill="#FBFAFA"/>
</svg>
