<svg width="40" height="34" viewBox="0 0 40 34" fill="none" xmlns="http://www.w3.org/2000/svg">
<g clip-path="url(#clip0_2496_12722)">
<path d="M4.87332 30.75L9.92273 16.0113C10.0556 15.5875 10.4985 15.3991 10.8529 15.5404C11.2515 15.6817 11.4287 16.1525 11.2958 16.5293L6.24641 31.268C6.15782 31.5976 5.84777 31.786 5.53772 31.786C5.44913 31.786 5.36055 31.786 5.27196 31.7389C4.96191 31.5976 4.74045 31.1738 4.87332 30.75Z" fill="#FFD5AA"/>
<path d="M13.8205 15.5404C14.2192 15.3991 14.6178 15.5875 14.7507 16.0113L19.8001 30.75C19.933 31.1738 19.7558 31.5976 19.3572 31.7389C19.2686 31.786 19.18 31.786 19.0914 31.786C18.7814 31.786 18.5156 31.5976 18.3827 31.268L13.3776 16.5293C13.2447 16.1525 13.4219 15.6817 13.8205 15.5404Z" fill="#FFD5AA"/>
<path d="M3.10149 18.6011H21.5274C23.1219 18.6011 24.4064 17.2355 24.4064 15.5403V3.39145C24.4064 1.69626 23.1219 0.330688 21.5274 0.330688H3.14578C1.55124 0.330688 0.266737 1.69626 0.266737 3.39145V15.5403C0.222444 17.2355 1.50694 18.6011 3.10149 18.6011Z" fill="#F7F7F7"/>
<path d="M32.4687 10.7844C34.5235 10.7844 36.1893 9.01351 36.1893 6.82898C36.1893 4.64445 34.5235 2.87354 32.4687 2.87354C30.4138 2.87354 28.748 4.64445 28.748 6.82898C28.748 9.01351 30.4138 10.7844 32.4687 10.7844Z" fill="#FFD5AA"/>
<path d="M22.5909 20.2493C22.7238 20.2493 22.901 20.2493 23.0338 20.1551C23.3882 19.9668 23.5211 19.4488 23.2996 19.0721L18.2502 9.466C18.073 9.08929 17.5858 8.94802 17.2315 9.18347C16.8771 9.37182 16.7442 9.88979 16.9657 10.2665L22.0151 19.9197C22.148 20.0609 22.3252 20.2022 22.5909 20.2493Z" fill="#FFD971"/>
<path d="M21.9264 17.6594L27.0201 14.2691C27.8173 12.9977 29.1461 12.1501 30.6078 11.9617C30.6078 11.9617 33.1768 11.8204 34.1955 11.9617C37.2518 12.3855 39.5993 15.1637 39.5993 18.4599V23.6397C39.5993 24.7227 38.802 25.5703 37.7833 25.5703V32.2098C37.7833 32.9632 37.2075 33.6225 36.4545 33.6225H27.4187C26.71 33.6225 26.0899 33.0103 26.0899 32.2098V19.8726L24.0081 21.2382C23.078 21.8503 21.8378 21.5678 21.262 20.5789C20.6862 19.5901 20.9519 18.2716 21.9264 17.6594Z" fill="#5C8EFF"/>
<path d="M3.10156 4.99249C3.10156 4.42743 3.54449 3.95654 4.07601 3.95654H15.3707C15.9023 3.95654 16.3452 4.42743 16.3452 4.99249C16.3452 5.55756 15.9023 6.02844 15.3707 6.02844H4.07601C3.54449 6.02844 3.10156 5.55756 3.10156 4.99249Z" fill="#5C8EFF"/>
<path d="M4.07601 8.42993H11.9602C12.4917 8.42993 12.9346 8.90082 12.9346 9.46588C12.9346 10.0309 12.4917 10.5018 11.9602 10.5018H4.07601C3.54449 10.5018 3.10156 10.0309 3.10156 9.46588C3.10156 8.90082 3.54449 8.42993 4.07601 8.42993Z" fill="#5C8EFF"/>
<path d="M4.07601 12.9034H11.9602C12.4917 12.9034 12.9346 13.3743 12.9346 13.9394C12.9346 14.5045 12.4917 14.9753 11.9602 14.9753H4.07601C3.54449 14.9753 3.10156 14.5045 3.10156 13.9394C3.10156 13.3743 3.54449 12.9034 4.07601 12.9034Z" fill="#5C8EFF"/>
</g>
<defs>
<clipPath id="clip0_2496_12722">
<rect width="40" height="34" fill="white"/>
</clipPath>
</defs>
</svg>
