<svg width="26" height="27" viewBox="0 0 26 27" fill="none" xmlns="http://www.w3.org/2000/svg">
<mask id="path-1-inside-1_2604_10741" fill="white">
<path d="M0.633365 12.2338C0.283567 5.47728 5.4846 9.58959e-07 12.2502 2.14189e-06C19.0158 3.32483e-06 24.784 5.47728 25.1338 12.2338L25.2204 13.9077C25.5702 20.6643 20.3692 26.1416 13.6036 26.1416C6.83799 26.1416 1.06982 20.6643 0.720026 13.9077L0.633365 12.2338Z"/>
</mask>
<path d="M-9.62515 7.24051C-10.1177 -2.27378 -2.79384 -9.98663 6.73318 -9.98662C16.2602 -9.98662 24.3827 -2.27377 24.8753 7.24052L25.1338 12.2338C25.0695 10.9927 19.5328 9.98663 12.7672 9.98663C11.5245 9.98663 10.5691 10.9927 10.6334 12.2338L-9.62515 7.24051ZM25.8538 26.1416L1.35339 26.1416L25.8538 26.1416ZM9.44168 26.1416C-0.548205 26.1416 -9.06532 18.054 -9.58182 8.07747L-9.62515 7.24051C-10.1177 -2.27378 -2.79384 -9.98663 6.73318 -9.98662L12.7672 9.98663C11.5245 9.98663 10.5691 10.9927 10.6334 12.2338L10.72 13.9078C11.0698 20.6643 12.3608 26.1416 13.6036 26.1416L9.44168 26.1416ZM24.5004 4.28379e-06L25.8538 26.1416L24.5004 4.28379e-06Z" fill="#FBFAFA" fill-opacity="0.2" mask="url(#path-1-inside-1_2604_10741)"/>
</svg>
