<svg width="26" height="27" viewBox="0 0 26 27" fill="none" xmlns="http://www.w3.org/2000/svg">
<mask id="path-1-inside-1_2604_10743" fill="white">
<path d="M0.661152 12.4989C0.296008 5.59597 5.60378 9.58959e-07 12.5164 2.14189e-06C19.429 3.32483e-06 25.3288 5.59597 25.694 12.4989L25.7545 13.6426C26.1196 20.5456 20.8118 26.1416 13.8992 26.1416C6.98658 26.1416 1.08679 20.5456 0.721649 13.6426L0.661152 12.4989Z"/>
</mask>
<path d="M-9.60296 7.50591C-10.114 -2.15463 -2.68586 -9.98604 6.98818 -9.98604C16.6622 -9.98604 24.9188 -2.15462 25.4299 7.50592L25.694 12.4989C25.6206 11.1111 19.9573 9.98604 13.0446 9.98604C11.6549 9.98604 10.5877 11.1111 10.6612 12.4989L-9.60296 7.50591ZM26.4156 26.1416L1.3828 26.1416L26.4156 26.1416ZM9.47186 26.1416C-0.518451 26.1416 -9.045 18.0541 -9.57271 8.07777L-9.60296 7.50591C-10.114 -2.15463 -2.68586 -9.98604 6.98818 -9.98604L13.0446 9.98604C11.6549 9.98604 10.5877 11.1111 10.6612 12.4989L10.7216 13.6426C11.0868 20.5456 12.5094 26.1416 13.8992 26.1416L9.47186 26.1416ZM25.0328 4.28379e-06L26.4156 26.1416L25.0328 4.28379e-06Z" fill="#FBFAFA" fill-opacity="0.15" mask="url(#path-1-inside-1_2604_10743)"/>
</svg>
