<svg width="358" height="866" viewBox="0 0 358 866" fill="none" xmlns="http://www.w3.org/2000/svg">
<path d="M109.597 598.334C171.367 598.334 222.46 650.778 222.46 740.285" stroke="#FBFAFA" stroke-opacity="0.4" stroke-width="4.13333"/>
<path d="M100.067 863.645C194.533 863.645 222 823.349 222 740.678" stroke="#FBFAFA" stroke-opacity="0.4" stroke-width="4.13333"/>
<path d="M4.99808 714.957C5.06003 713.818 4.18633 712.843 3.04663 712.781C1.90692 712.72 0.932788 713.593 0.870841 714.733L4.99808 714.957ZM0.870841 714.733C-1.723 762.454 4.98878 800.163 21.4701 826.006C38.0451 851.996 64.3252 865.712 100.067 865.712V861.578C65.5409 861.578 40.6712 848.427 24.955 823.784C9.14524 798.994 2.42469 762.302 4.99808 714.957L0.870841 714.733Z" fill="#FBFAFA" fill-opacity="0.4"/>
<path d="M356.078 7.16379C357.136 7.59338 357.645 8.79887 357.215 9.85633L350.215 27.0886C349.785 28.1461 348.58 28.6551 347.522 28.2255C346.465 27.7959 345.956 26.5904 346.385 25.5329L352.608 10.2153L337.29 3.99257C336.233 3.56298 335.724 2.35749 336.154 1.30003C336.583 0.24257 337.789 -0.266417 338.846 0.163176L356.078 7.16379ZM356.104 10.9824C309.601 30.6172 224.527 75.6071 224.527 174.805L220.394 174.805C220.394 72.7499 308 26.8065 354.497 7.17457L356.104 10.9824Z" fill="#FBFAFA" fill-opacity="0.4"/>
<path d="M112.467 312.877L110.4 312.877L110.4 317.011L112.467 317.011L112.467 312.877ZM112.467 317.011C145.153 317.011 173.209 298.714 193.015 271.918C212.818 245.125 224.526 209.658 224.526 174.805L220.392 174.805C220.392 208.792 208.957 243.394 189.691 269.461C170.427 295.524 143.488 312.877 112.467 312.877L112.467 317.011Z" fill="#FBFAFA" fill-opacity="0.4"/>
<path d="M110.4 314.944C46.6862 314.944 4.9999 367.936 4.99991 456.512" stroke="#FBFAFA" stroke-opacity="0.4" stroke-width="4.13333"/>
<path d="M109.597 598.334C50.4671 598.334 5.00042 571.343 5.00042 456.512" stroke="#FBFAFA" stroke-opacity="0.4" stroke-width="4.13333"/>
<path d="M58.4918 711.912C58.8004 711.912 59.087 711.603 59.3515 710.986C59.6602 710.369 59.8145 709.354 59.8145 707.944V705.629H35.0145C35.3672 705.056 35.8522 704.284 36.4694 703.314C37.1307 702.344 37.77 701.441 38.3873 700.603C39.1809 699.501 40.1508 698.09 41.2971 696.37C42.4875 694.607 43.7441 692.689 45.0667 690.617C46.4335 688.545 47.7782 686.45 49.1009 684.334C50.4676 682.218 51.7462 680.234 52.9366 678.382C54.3474 676.222 55.2072 674.679 55.5158 673.753C55.8244 672.783 55.8685 672.276 55.6481 672.232H71.2555C70.9469 672.232 70.6383 672.54 70.3297 673.157C70.0651 673.775 69.9329 674.811 69.9329 676.266L69.8667 698.354H70.5942C73.1955 698.354 75.2676 698.2 76.8107 697.891C78.3979 697.583 79.412 697.274 79.8529 696.965L78.5302 703.645V705.629H69.8667V707.944C69.8667 709.354 70.021 710.369 70.3297 710.986C70.6383 711.603 70.9469 711.912 71.2555 711.912H58.4918ZM50.0929 698.354H59.8145V681.556H59.6822C59.3295 682.526 58.8666 683.629 58.2934 684.863C57.7643 686.053 57.1471 687.288 56.4417 688.567C55.7362 689.845 55.0088 691.102 54.2593 692.336C53.5098 693.527 52.7823 694.629 52.0769 695.643C51.3714 696.657 50.7101 697.495 50.0929 698.156V698.354ZM100.701 712.573C94.8371 712.573 90.4502 710.831 87.5404 707.348C84.6305 703.821 83.1756 698.663 83.1756 691.873C83.1756 685.26 84.6525 680.234 87.6065 676.795C90.5604 673.312 94.9252 671.57 100.701 671.57H101.428C107.116 671.57 111.392 673.29 114.258 676.729C117.168 680.168 118.623 685.216 118.623 691.873C118.623 698.663 117.168 703.821 114.258 707.348C111.392 710.831 107.116 712.573 101.428 712.573H100.701ZM100.701 705.232H101.428C102.927 705.232 104.206 704.857 105.264 704.108C106.322 703.314 107.138 701.948 107.711 700.008C108.284 698.068 108.571 695.356 108.571 691.873C108.571 688.478 108.284 685.855 107.711 684.003C107.138 682.108 106.322 680.785 105.264 680.035C104.206 679.242 102.927 678.845 101.428 678.845H100.701C99.2019 678.845 97.8792 679.22 96.7329 679.969C95.6307 680.719 94.7709 682.041 94.1537 683.937C93.5364 685.789 93.2278 688.434 93.2278 691.873C93.2278 695.4 93.5364 698.134 94.1537 700.074C94.7709 702.014 95.6307 703.358 96.7329 704.108C97.8792 704.857 99.2019 705.232 100.701 705.232ZM141.453 712.573C135.589 712.573 131.202 710.831 128.292 707.348C125.383 703.821 123.928 698.663 123.928 691.873C123.928 685.26 125.405 680.234 128.359 676.795C131.313 673.312 135.677 671.57 141.453 671.57H142.18C147.868 671.57 152.145 673.29 155.01 676.729C157.92 680.168 159.375 685.216 159.375 691.873C159.375 698.663 157.92 703.821 155.01 707.348C152.145 710.831 147.868 712.573 142.18 712.573H141.453ZM141.453 705.232H142.18C143.679 705.232 144.958 704.857 146.016 704.108C147.074 703.314 147.89 701.948 148.463 700.008C149.036 698.068 149.323 695.356 149.323 691.873C149.323 688.478 149.036 685.855 148.463 684.003C147.89 682.108 147.074 680.785 146.016 680.035C144.958 679.242 143.679 678.845 142.18 678.845H141.453C139.954 678.845 138.631 679.22 137.485 679.969C136.383 680.719 135.523 682.041 134.906 683.937C134.289 685.789 133.98 688.434 133.98 691.873C133.98 695.4 134.289 698.134 134.906 700.074C135.523 702.014 136.383 703.358 137.485 704.108C138.631 704.857 139.954 705.232 141.453 705.232ZM171.954 703.314V680.829H178.568V703.314H171.954ZM164.018 695.378V688.765H186.504V695.378H164.018Z" fill="#D9ECFF"/>
<path d="M38.8901 791.24V787.577H40.264C40.8824 787.577 41.3912 787.487 41.7905 787.307C42.1897 787.127 42.5107 786.868 42.7534 786.532C43.0039 786.195 43.2113 785.804 43.3757 785.357L43.6928 784.547L35.0973 766.863H39.6534L45.642 779.733L50.8204 766.863H55.306L47.0159 786.473C46.6323 787.318 46.19 788.105 45.689 788.833C45.188 789.553 44.5343 790.137 43.728 790.583C42.9295 791.021 41.8883 791.24 40.6045 791.24H38.8901ZM70.1866 772.875V790.912H66.1002V772.875H70.1866ZM68.2726 781.024V784.5C67.8107 784.704 67.2862 784.888 66.6991 785.052C66.1198 785.209 65.5053 785.334 64.8555 785.428C64.2136 785.522 63.5717 785.569 62.9298 785.569C60.5187 785.569 58.6125 785.029 57.2112 783.948C55.8178 782.86 55.1211 781.165 55.1211 778.864V772.852H59.184V778.864C59.184 779.639 59.321 780.261 59.5949 780.731C59.8689 781.201 60.2838 781.545 60.8396 781.764C61.3954 781.976 62.0922 782.081 62.9298 782.081C63.8692 782.081 64.7616 781.987 65.6071 781.799C66.4525 781.612 67.341 781.353 68.2726 781.024ZM82.4486 791.264C80.6403 791.264 79.0786 790.888 77.7634 790.137C76.4561 789.377 75.4502 788.305 74.7456 786.919C74.0411 785.526 73.6888 783.886 73.6888 781.999C73.6888 780.144 74.0411 778.516 74.7456 777.114C75.458 775.705 76.4522 774.609 77.7282 773.826C79.0042 773.036 80.5033 772.64 82.2255 772.64C83.3371 772.64 84.3861 772.82 85.3725 773.181C86.3667 773.533 87.2435 774.081 88.0028 774.824C88.77 775.568 89.3728 776.515 89.8111 777.666C90.2495 778.809 90.4687 780.171 90.4687 781.753V783.056H75.685V780.191H86.3941C86.3863 779.377 86.2101 778.653 85.8657 778.018C85.5212 777.377 85.0398 776.872 84.4214 776.504C83.8108 776.136 83.0984 775.952 82.2842 775.952C81.4153 775.952 80.652 776.163 79.9945 776.586C79.3369 777.001 78.8241 777.549 78.4562 778.23C78.0961 778.903 77.9121 779.643 77.9043 780.449V782.95C77.9043 783.999 78.0961 784.899 78.4797 785.651C78.8633 786.395 79.3995 786.966 80.0884 787.365C80.7773 787.757 81.5836 787.953 82.5074 787.953C83.1258 787.953 83.6855 787.866 84.1865 787.694C84.6875 787.514 85.122 787.252 85.4899 786.907C85.8579 786.563 86.1358 786.136 86.3236 785.628L90.2926 786.074C90.0421 787.123 89.5645 788.039 88.86 788.821C88.1633 789.596 87.2709 790.199 86.1827 790.63C85.0946 791.053 83.8499 791.264 82.4486 791.264ZM106.453 780.132V783.62H96.8478V780.132H106.453ZM98.1629 772.875V790.912H94.0648V772.875H98.1629ZM109.236 772.875V790.912H105.15V772.875H109.236ZM117.635 785.158L124.856 772.875H129.225V790.912H125.115V778.617L117.917 790.912H113.537V772.875H117.635V785.158ZM133.59 790.912V772.875H137.841V780.156H139.391L144.816 772.875H149.935L143.254 781.729L150.006 790.912H144.863L139.919 784.113H137.841V790.912H133.59ZM159.541 791.264C157.779 791.264 156.253 790.876 154.961 790.101C153.669 789.326 152.667 788.242 151.955 786.849C151.25 785.455 150.898 783.827 150.898 781.964C150.898 780.101 151.25 778.469 151.955 777.067C152.667 775.666 153.669 774.578 154.961 773.803C156.253 773.028 157.779 772.64 159.541 772.64C161.302 772.64 162.828 773.028 164.12 773.803C165.412 774.578 166.41 775.666 167.114 777.067C167.827 778.469 168.183 780.101 168.183 781.964C168.183 783.827 167.827 785.455 167.114 786.849C166.41 788.242 165.412 789.326 164.12 790.101C162.828 790.876 161.302 791.264 159.541 791.264ZM159.564 787.859C160.519 787.859 161.318 787.596 161.96 787.072C162.601 786.54 163.079 785.827 163.392 784.935C163.713 784.042 163.874 783.048 163.874 781.952C163.874 780.848 163.713 779.85 163.392 778.958C163.079 778.058 162.601 777.341 161.96 776.809C161.318 776.277 160.519 776.01 159.564 776.01C158.586 776.01 157.771 776.277 157.122 776.809C156.48 777.341 155.998 778.058 155.677 778.958C155.364 779.85 155.208 780.848 155.208 781.952C155.208 783.048 155.364 784.042 155.677 784.935C155.998 785.827 156.48 786.54 157.122 787.072C157.771 787.596 158.586 787.859 159.564 787.859ZM171.791 790.912V772.875H179.365C181.502 772.875 183.189 773.302 184.426 774.155C185.67 775.008 186.293 776.198 186.293 777.725C186.293 778.735 185.941 779.561 185.236 780.203C184.539 780.837 183.588 781.263 182.383 781.482C183.33 781.561 184.16 781.799 184.872 782.199C185.592 782.598 186.156 783.122 186.563 783.772C186.97 784.422 187.173 785.17 187.173 786.015C187.173 787.009 186.911 787.874 186.387 788.61C185.87 789.338 185.115 789.906 184.12 790.313C183.134 790.712 181.936 790.912 180.527 790.912H171.791ZM175.772 787.565H180.527C181.31 787.565 181.925 787.381 182.371 787.013C182.817 786.637 183.04 786.129 183.04 785.487C183.04 784.743 182.817 784.16 182.371 783.737C181.925 783.306 181.31 783.091 180.527 783.091H175.772V787.565ZM175.772 780.343H179.447C180.026 780.343 180.523 780.261 180.938 780.097C181.353 779.925 181.67 779.686 181.889 779.381C182.109 779.067 182.218 778.696 182.218 778.265C182.218 777.647 181.964 777.161 181.455 776.809C180.954 776.457 180.257 776.281 179.365 776.281H175.772V780.343Z" fill="#D9ECFF"/>
<path d="M72.3203 446.346C72.6289 446.346 72.9155 446.037 73.18 445.42C73.4886 444.802 73.6429 443.788 73.6429 442.378V415.395L67.0296 416.718V408.65C68.8373 408.65 70.7772 408.517 72.8493 408.253C74.9656 407.944 76.9937 407.591 78.9336 407.195C80.8735 406.754 82.5048 406.357 83.8275 406.004V442.378C83.8275 443.788 83.9818 444.802 84.2904 445.42C84.599 446.037 84.9077 446.346 85.2163 446.346H72.3203ZM109.355 447.007C103.491 447.007 99.1043 445.265 96.1944 441.782C93.2845 438.255 91.8296 433.097 91.8296 426.307C91.8296 419.694 93.3066 414.668 96.2605 411.229C99.2145 407.746 103.579 406.004 109.355 406.004H110.082C115.77 406.004 120.047 407.724 122.912 411.163C125.822 414.602 127.277 419.65 127.277 426.307C127.277 433.097 125.822 438.255 122.912 441.782C120.047 445.265 115.77 447.007 110.082 447.007H109.355ZM109.355 439.666H110.082C111.581 439.666 112.86 439.291 113.918 438.542C114.976 437.748 115.792 436.381 116.365 434.442C116.938 432.502 117.225 429.79 117.225 426.307C117.225 422.912 116.938 420.289 116.365 418.437C115.792 416.541 114.976 415.219 113.918 414.469C112.86 413.676 111.581 413.279 110.082 413.279H109.355C107.856 413.279 106.533 413.654 105.387 414.403C104.285 415.153 103.425 416.475 102.808 418.371C102.191 420.223 101.882 422.868 101.882 426.307C101.882 429.834 102.191 432.568 102.808 434.508C103.425 436.448 104.285 437.792 105.387 438.542C106.533 439.291 107.856 439.666 109.355 439.666ZM139.856 437.748V415.263H146.47V437.748H139.856ZM131.92 429.812V423.199H154.406V429.812H131.92Z" fill="#D9ECFF"/>
<path d="M67.5694 525.346L59.655 514.836H57.5179V525.346H53.1615V501.297H57.5179V511.184H58.6099L67.1584 501.297H72.5247L63.0251 512.265L72.9357 525.346H67.5694ZM77.025 532.109C76.4457 532.109 75.9095 532.062 75.4163 531.968C74.9309 531.882 74.5434 531.78 74.2538 531.663L75.2401 528.352C75.8586 528.532 76.4105 528.618 76.8958 528.61C77.3812 528.602 77.8078 528.449 78.1758 528.152C78.5515 527.862 78.8686 527.377 79.1269 526.696L79.4909 525.721L72.9504 507.309H77.4595L81.6163 520.93H81.8042L85.9727 507.309H90.4936L83.272 527.53C82.9353 528.485 82.4891 529.303 81.9333 529.984C81.3775 530.673 80.6965 531.197 79.8901 531.557C79.0917 531.925 78.1366 532.109 77.025 532.109ZM93.435 532.109V507.309H97.6153V510.292H97.8619C98.0811 509.853 98.3903 509.388 98.7896 508.894C99.1888 508.393 99.729 507.967 100.41 507.615C101.091 507.254 101.96 507.074 103.017 507.074C104.41 507.074 105.667 507.431 106.786 508.143C107.913 508.847 108.806 509.893 109.463 511.278C110.129 512.656 110.462 514.347 110.462 516.351C110.462 518.331 110.137 520.015 109.487 521.4C108.837 522.786 107.953 523.843 106.833 524.571C105.714 525.299 104.446 525.663 103.029 525.663C101.995 525.663 101.138 525.49 100.457 525.146C99.7759 524.802 99.228 524.387 98.8131 523.901C98.406 523.408 98.089 522.942 97.8619 522.504H97.6858V532.109H93.435ZM97.6036 516.327C97.6036 517.494 97.768 518.515 98.0968 519.392C98.4334 520.269 98.9148 520.954 99.5411 521.447C100.175 521.932 100.942 522.175 101.843 522.175C102.782 522.175 103.569 521.925 104.203 521.424C104.837 520.915 105.314 520.222 105.635 519.345C105.964 518.461 106.129 517.455 106.129 516.327C106.129 515.208 105.968 514.214 105.647 513.345C105.326 512.476 104.849 511.795 104.215 511.302C103.58 510.808 102.79 510.562 101.843 510.562C100.935 510.562 100.163 510.801 99.5294 511.278C98.8953 511.756 98.4138 512.425 98.085 513.286C97.7641 514.147 97.6036 515.161 97.6036 516.327ZM121.969 525.698C120.169 525.698 118.623 525.303 117.331 524.512C116.047 523.721 115.057 522.629 114.36 521.236C113.671 519.834 113.327 518.222 113.327 516.398C113.327 514.566 113.679 512.949 114.384 511.548C115.088 510.139 116.082 509.043 117.366 508.26C118.658 507.47 120.184 507.074 121.946 507.074C123.41 507.074 124.705 507.344 125.832 507.885C126.967 508.417 127.872 509.172 128.545 510.151C129.218 511.122 129.602 512.257 129.696 513.556H125.633C125.468 512.687 125.077 511.963 124.459 511.384C123.848 510.797 123.03 510.503 122.004 510.503C121.135 510.503 120.372 510.738 119.715 511.208C119.057 511.67 118.544 512.335 118.176 513.204C117.816 514.073 117.636 515.114 117.636 516.327C117.636 517.556 117.816 518.613 118.176 519.498C118.536 520.375 119.041 521.052 119.691 521.529C120.349 521.999 121.12 522.234 122.004 522.234C122.631 522.234 123.19 522.116 123.684 521.882C124.185 521.639 124.603 521.291 124.94 520.836C125.277 520.382 125.508 519.831 125.633 519.181H129.696C129.594 520.457 129.218 521.588 128.568 522.574C127.919 523.553 127.034 524.32 125.915 524.876C124.795 525.424 123.48 525.698 121.969 525.698ZM141.054 525.698C139.292 525.698 137.766 525.31 136.474 524.535C135.182 523.76 134.18 522.676 133.468 521.283C132.763 519.889 132.411 518.261 132.411 516.398C132.411 514.535 132.763 512.903 133.468 511.501C134.18 510.1 135.182 509.012 136.474 508.237C137.766 507.462 139.292 507.074 141.054 507.074C142.815 507.074 144.341 507.462 145.633 508.237C146.925 509.012 147.923 510.1 148.627 511.501C149.34 512.903 149.696 514.535 149.696 516.398C149.696 518.261 149.34 519.889 148.627 521.283C147.923 522.676 146.925 523.76 145.633 524.535C144.341 525.31 142.815 525.698 141.054 525.698ZM141.077 522.293C142.032 522.293 142.831 522.03 143.472 521.506C144.114 520.973 144.592 520.261 144.905 519.369C145.226 518.476 145.386 517.482 145.386 516.386C145.386 515.282 145.226 514.284 144.905 513.392C144.592 512.492 144.114 511.775 143.472 511.243C142.831 510.711 142.032 510.444 141.077 510.444C140.098 510.444 139.284 510.711 138.635 511.243C137.993 511.775 137.511 512.492 137.19 513.392C136.877 514.284 136.721 515.282 136.721 516.386C136.721 517.482 136.877 518.476 137.19 519.369C137.511 520.261 137.993 520.973 138.635 521.506C139.284 522.03 140.098 522.293 141.077 522.293ZM153.304 525.346V507.309H160.878C163.015 507.309 164.702 507.736 165.939 508.589C167.183 509.442 167.806 510.632 167.806 512.159C167.806 513.169 167.453 513.995 166.749 514.636C166.052 515.271 165.101 515.697 163.895 515.916C164.843 515.995 165.672 516.233 166.385 516.633C167.105 517.032 167.669 517.556 168.076 518.206C168.483 518.856 168.686 519.604 168.686 520.449C168.686 521.443 168.424 522.308 167.9 523.044C167.383 523.772 166.628 524.34 165.633 524.747C164.647 525.146 163.449 525.346 162.04 525.346H153.304ZM157.284 521.999H162.04C162.823 521.999 163.438 521.815 163.884 521.447C164.33 521.071 164.553 520.562 164.553 519.921C164.553 519.177 164.33 518.594 163.884 518.171C163.438 517.74 162.823 517.525 162.04 517.525H157.284V521.999ZM157.284 514.777H160.96C161.539 514.777 162.036 514.695 162.451 514.531C162.866 514.359 163.183 514.12 163.402 513.815C163.621 513.501 163.731 513.13 163.731 512.699C163.731 512.081 163.477 511.595 162.968 511.243C162.467 510.891 161.77 510.715 160.878 510.715H157.284V514.777Z" fill="#D9ECFF"/>
<path d="M99.1788 164.907C95.4312 164.907 92.1466 164.157 89.3249 162.658C86.5032 161.115 84.3208 158.757 82.7777 155.582C81.2346 152.408 80.4631 148.374 80.4631 143.48C80.4631 137.219 82.2266 132.391 85.7537 128.997C89.2808 125.602 94.1967 123.904 100.501 123.904C104.161 123.904 107.247 124.213 109.76 124.83C112.317 125.447 114.081 126.065 115.051 126.682L113.728 133.295V135.279C112.626 134.397 110.884 133.516 108.504 132.634C106.123 131.752 103.433 131.311 100.435 131.311C98.6718 131.311 97.1507 131.576 95.8721 132.105C94.6376 132.59 93.6236 133.339 92.83 134.353C92.0364 135.323 91.4412 136.536 91.0444 137.991C90.6917 139.446 90.5153 141.121 90.5153 143.017L90.6476 143.083C90.868 142.774 91.2207 142.355 91.7057 141.826C92.1907 141.253 92.852 140.702 93.6897 140.173C94.5274 139.6 95.5635 139.115 96.798 138.718C98.0325 138.321 99.5095 138.123 101.229 138.123C106.211 138.123 109.892 139.225 112.273 141.43C114.698 143.59 115.911 146.941 115.911 151.482C115.911 153.686 115.426 155.825 114.456 157.897C113.53 159.925 111.943 161.6 109.694 162.923C107.49 164.246 104.447 164.907 100.568 164.907H99.1788ZM98.7159 157.566C101.185 157.566 102.992 157.059 104.139 156.045C105.285 154.987 105.858 153.356 105.858 151.151C105.858 148.859 105.263 147.338 104.073 146.588C102.926 145.794 101.339 145.398 99.3111 145.398C97.7679 145.398 96.4453 145.64 95.3431 146.125C94.2408 146.61 93.4031 147.315 92.83 148.241C92.2568 149.123 91.9703 150.247 91.9703 151.614C91.9703 153.069 92.2568 154.237 92.83 155.119C93.4472 156.001 94.2629 156.64 95.2769 157.037C96.3351 157.39 97.4814 157.566 98.7159 157.566ZM128.49 155.648V133.163H135.103V155.648H128.49ZM120.554 147.712V141.099H143.039V147.712H120.554Z" fill="#D9ECFF"/>
<path d="M54.2294 242.246V221.203H62.2847C63.8053 221.203 65.0691 221.443 66.076 221.922C67.0898 222.395 67.8467 223.042 68.3467 223.864C68.8536 224.686 69.107 225.618 69.107 226.659C69.107 227.515 68.9427 228.248 68.6139 228.858C68.2851 229.461 67.8433 229.95 67.2884 230.327C66.7336 230.704 66.1137 230.974 65.4287 231.139V231.344C66.1754 231.385 66.8912 231.615 67.5761 232.033C68.268 232.444 68.8331 233.026 69.2714 233.779C69.7098 234.533 69.929 235.444 69.929 236.512C69.929 237.601 69.6653 238.581 69.1379 239.451C68.6104 240.314 67.8159 240.996 66.7542 241.496C65.6924 241.996 64.3567 242.246 62.7471 242.246H54.2294ZM58.0413 239.06H62.1409C63.5245 239.06 64.5211 238.797 65.1308 238.269C65.7472 237.735 66.0555 237.05 66.0555 236.214C66.0555 235.591 65.9014 235.029 65.5931 234.529C65.2849 234.022 64.8465 233.625 64.278 233.338C63.7094 233.043 63.0313 232.896 62.2436 232.896H58.0413V239.06ZM58.0413 230.152H61.8121C62.4696 230.152 63.0621 230.033 63.5896 229.793C64.117 229.546 64.5314 229.2 64.8328 228.755C65.141 228.303 65.2952 227.769 65.2952 227.152C65.2952 226.337 65.0075 225.666 64.4321 225.138C63.8636 224.611 63.0176 224.347 61.8943 224.347H58.0413V230.152ZM79.9648 242.554C78.4236 242.554 77.0879 242.215 75.9576 241.537C74.8274 240.859 73.9507 239.91 73.3273 238.691C72.7109 237.471 72.4026 236.047 72.4026 234.416C72.4026 232.786 72.7109 231.358 73.3273 230.132C73.9507 228.906 74.8274 227.954 75.9576 227.275C77.0879 226.597 78.4236 226.258 79.9648 226.258C81.5059 226.258 82.8416 226.597 83.9719 227.275C85.1021 227.954 85.9754 228.906 86.5919 230.132C87.2152 231.358 87.5269 232.786 87.5269 234.416C87.5269 236.047 87.2152 237.471 86.5919 238.691C85.9754 239.91 85.1021 240.859 83.9719 241.537C82.8416 242.215 81.5059 242.554 79.9648 242.554ZM79.9853 239.574C80.821 239.574 81.5196 239.345 82.0813 238.886C82.643 238.42 83.0608 237.797 83.3348 237.016C83.6157 236.235 83.7561 235.365 83.7561 234.406C83.7561 233.44 83.6157 232.567 83.3348 231.786C83.0608 230.998 82.643 230.372 82.0813 229.906C81.5196 229.44 80.821 229.207 79.9853 229.207C79.1291 229.207 78.4167 229.44 77.8482 229.906C77.2865 230.372 76.8652 230.998 76.5844 231.786C76.3104 232.567 76.1734 233.44 76.1734 234.406C76.1734 235.365 76.3104 236.235 76.5844 237.016C76.8652 237.797 77.2865 238.42 77.8482 238.886C78.4167 239.345 79.1291 239.574 79.9853 239.574ZM89.8104 237.92H93.499C93.5332 238.509 93.797 238.965 94.2901 239.287C94.7833 239.608 95.4238 239.769 96.2115 239.769C97.0129 239.769 97.6876 239.595 98.2356 239.245C98.7904 238.889 99.0678 238.352 99.0678 237.632C99.0678 237.208 98.9617 236.834 98.7493 236.512C98.537 236.184 98.239 235.93 97.8554 235.752C97.4719 235.574 97.0198 235.485 96.4992 235.485H94.0847V232.844H96.4992C97.2732 232.844 97.8589 232.666 98.2561 232.31C98.6603 231.954 98.8623 231.505 98.8623 230.964C98.8623 230.382 98.65 229.909 98.2253 229.546C97.8075 229.183 97.2287 229.002 96.4889 229.002C95.7491 229.002 95.1327 229.169 94.6395 229.505C94.1531 229.841 93.8997 230.272 93.8792 230.8H90.2111C90.2248 229.882 90.4988 229.084 91.0331 228.406C91.5742 227.728 92.3003 227.2 93.2113 226.823C94.1292 226.447 95.1635 226.258 96.3142 226.258C97.5472 226.258 98.6123 226.443 99.5097 226.813C100.407 227.183 101.099 227.7 101.585 228.365C102.071 229.022 102.315 229.796 102.315 230.687C102.315 231.543 102.047 232.252 101.513 232.814C100.979 233.368 100.26 233.766 99.3555 234.005V234.17C99.9789 234.204 100.541 234.382 101.041 234.704C101.541 235.019 101.938 235.447 102.232 235.988C102.527 236.529 102.674 237.156 102.674 237.869C102.674 238.834 102.397 239.67 101.842 240.376C101.287 241.074 100.523 241.612 99.5507 241.989C98.5849 242.365 97.4787 242.554 96.232 242.554C95.0196 242.554 93.934 242.372 92.975 242.009C92.0229 241.639 91.266 241.109 90.7043 240.417C90.1426 239.725 89.8447 238.893 89.8104 237.92ZM105.603 248.164V226.464H109.26V229.074H109.476C109.668 228.69 109.938 228.282 110.288 227.851C110.637 227.412 111.11 227.039 111.706 226.731C112.302 226.416 113.062 226.258 113.987 226.258C115.206 226.258 116.305 226.57 117.285 227.193C118.271 227.81 119.052 228.724 119.627 229.937C120.21 231.142 120.501 232.622 120.501 234.375C120.501 236.108 120.216 237.581 119.648 238.793C119.079 240.006 118.305 240.93 117.326 241.567C116.346 242.205 115.237 242.523 113.997 242.523C113.093 242.523 112.343 242.372 111.747 242.071C111.151 241.77 110.671 241.407 110.308 240.982C109.952 240.55 109.675 240.143 109.476 239.759H109.322V248.164H105.603ZM109.25 234.355C109.25 235.375 109.394 236.269 109.682 237.036C109.976 237.804 110.397 238.403 110.945 238.834C111.5 239.259 112.171 239.471 112.959 239.471C113.781 239.471 114.469 239.252 115.024 238.814C115.579 238.369 115.997 237.762 116.278 236.995C116.566 236.221 116.709 235.341 116.709 234.355C116.709 233.375 116.569 232.505 116.288 231.745C116.007 230.985 115.589 230.389 115.035 229.957C114.48 229.526 113.788 229.31 112.959 229.31C112.165 229.31 111.49 229.519 110.935 229.937C110.38 230.354 109.959 230.94 109.671 231.694C109.39 232.447 109.25 233.334 109.25 234.355ZM128.227 242.564C127.227 242.564 126.326 242.386 125.525 242.03C124.73 241.667 124.1 241.133 123.634 240.427C123.176 239.721 122.946 238.852 122.946 237.817C122.946 236.927 123.11 236.19 123.439 235.608C123.768 235.026 124.217 234.56 124.785 234.211C125.354 233.862 125.994 233.598 126.707 233.42C127.426 233.235 128.169 233.101 128.936 233.019C129.861 232.923 130.611 232.837 131.186 232.762C131.762 232.68 132.18 232.557 132.44 232.392C132.707 232.221 132.841 231.957 132.841 231.601V231.539C132.841 230.765 132.611 230.166 132.152 229.741C131.693 229.317 131.032 229.104 130.169 229.104C129.258 229.104 128.535 229.303 128.001 229.7C127.474 230.098 127.118 230.567 126.933 231.108L123.46 230.615C123.734 229.656 124.186 228.854 124.816 228.21C125.446 227.56 126.217 227.073 127.128 226.751C128.039 226.423 129.046 226.258 130.149 226.258C130.909 226.258 131.666 226.347 132.419 226.525C133.173 226.704 133.861 226.998 134.484 227.409C135.108 227.813 135.608 228.365 135.985 229.063C136.368 229.762 136.56 230.635 136.56 231.683V242.246H132.984V240.078H132.861C132.635 240.516 132.317 240.927 131.906 241.311C131.501 241.687 130.991 241.992 130.375 242.225C129.765 242.451 129.049 242.564 128.227 242.564ZM129.193 239.831C129.94 239.831 130.587 239.684 131.135 239.389C131.683 239.088 132.104 238.691 132.399 238.197C132.7 237.704 132.851 237.167 132.851 236.584V234.725C132.734 234.82 132.536 234.91 132.255 234.992C131.981 235.074 131.673 235.146 131.33 235.207C130.988 235.269 130.649 235.324 130.313 235.372C129.977 235.42 129.686 235.461 129.44 235.495C128.885 235.571 128.388 235.694 127.95 235.865C127.511 236.036 127.166 236.276 126.912 236.584C126.659 236.886 126.532 237.276 126.532 237.756C126.532 238.441 126.782 238.958 127.282 239.307C127.782 239.656 128.419 239.831 129.193 239.831ZM147.184 242.554C145.608 242.554 144.256 242.208 143.125 241.516C142.002 240.824 141.136 239.869 140.526 238.649C139.923 237.423 139.622 236.012 139.622 234.416C139.622 232.814 139.93 231.399 140.546 230.173C141.163 228.94 142.033 227.981 143.156 227.296C144.286 226.604 145.622 226.258 147.163 226.258C148.444 226.258 149.578 226.495 150.564 226.967C151.557 227.433 152.349 228.094 152.938 228.95C153.527 229.8 153.862 230.793 153.945 231.93H150.39C150.246 231.17 149.903 230.536 149.362 230.029C148.828 229.515 148.112 229.258 147.215 229.258C146.454 229.258 145.787 229.464 145.211 229.875C144.636 230.279 144.187 230.861 143.865 231.622C143.55 232.382 143.393 233.293 143.393 234.355C143.393 235.43 143.55 236.355 143.865 237.129C144.18 237.896 144.622 238.489 145.191 238.906C145.766 239.317 146.441 239.523 147.215 239.523C147.763 239.523 148.252 239.42 148.684 239.215C149.122 239.002 149.489 238.697 149.783 238.3C150.078 237.903 150.28 237.42 150.39 236.851H153.945C153.856 237.968 153.527 238.958 152.958 239.821C152.39 240.677 151.616 241.348 150.636 241.835C149.657 242.314 148.506 242.554 147.184 242.554ZM155.853 229.515V226.464H169.662V229.515H164.556V242.246H160.96V229.515H155.853Z" fill="#D9ECFF"/>
</svg>
