<svg width="145" height="300" viewBox="0 0 145 350" fill="none" xmlns="http://www.w3.org/2000/svg">
<path d="M44.1763 241.853C69.0835 241.853 89.6857 263 89.6857 299.091" stroke="#FBFAFA" stroke-opacity="0.4" stroke-width="1.66667"/>
<path d="M40.3334 348.833C78.4248 348.833 89.5 332.585 89.5 299.25" stroke="#FBFAFA" stroke-opacity="0.4" stroke-width="1.66667"/>
<path d="M1.99923 288.879C2.02421 288.419 1.67191 288.026 1.21235 288.001C0.752791 287.976 0.359995 288.329 0.335016 288.788L1.99923 288.879ZM0.335016 288.788C-0.710886 308.031 1.99548 323.236 8.64117 333.656C15.3246 344.136 25.9215 349.667 40.3335 349.667V348C26.4117 348 16.3835 342.697 10.0464 332.76C3.67147 322.764 0.96157 307.969 1.99923 288.879L0.335016 288.788Z" fill="#FBFAFA" fill-opacity="0.4"/>
<path d="M143.564 3.47794C143.99 3.65116 144.195 4.13725 144.022 4.56365L141.199 11.5121C141.026 11.9385 140.54 12.1438 140.114 11.9706C139.687 11.7973 139.482 11.3112 139.655 10.8848L142.164 4.70841L135.988 2.19923C135.562 2.026 135.356 1.53992 135.53 1.11352C135.703 0.687129 136.189 0.481892 136.615 0.655115L143.564 3.47794ZM143.574 5.01771C124.823 12.935 90.519 31.076 90.519 71.0753L88.8523 71.0753C88.8523 29.924 124.177 11.3984 142.926 3.48229L143.574 5.01771Z" fill="#FBFAFA" fill-opacity="0.4"/>
<path d="M45.3334 126.75L44.5 126.75L44.5 128.416L45.3334 128.416L45.3334 126.75ZM45.3334 128.416C58.5133 128.416 69.8265 121.039 77.8126 110.234C85.7976 99.4303 90.5184 85.129 90.5184 71.0754L88.8518 71.0754C88.8518 84.7798 84.241 98.7323 76.4723 109.243C68.7046 119.752 57.8419 126.75 45.3334 126.75L45.3334 128.416Z" fill="#FBFAFA" fill-opacity="0.4"/>
<path d="M44.5 127.583C18.809 127.583 2 148.951 2 184.667" stroke="#FBFAFA" stroke-opacity="0.4" stroke-width="1.66667"/>
<path d="M44.1763 241.853C20.3335 241.853 2.00016 230.969 2.00016 184.667" stroke="#FBFAFA" stroke-opacity="0.4" stroke-width="1.66667"/>
</svg>
