<svg width="358" height="866" viewBox="0 0 358 866" fill="none" xmlns="http://www.w3.org/2000/svg">
<path d="M109.597 598.334C171.367 598.334 222.46 650.778 222.46 740.285" stroke="#FBFAFA" stroke-opacity="0.4" stroke-width="4.13333"/>
<path d="M100.067 863.645C194.533 863.645 222 823.349 222 740.678" stroke="#FBFAFA" stroke-opacity="0.4" stroke-width="4.13333"/>
<path d="M4.99808 714.957C5.06003 713.818 4.18633 712.843 3.04663 712.781C1.90692 712.72 0.932788 713.593 0.870841 714.733L4.99808 714.957ZM0.870841 714.733C-1.723 762.454 4.98878 800.163 21.4701 826.006C38.0451 851.996 64.3252 865.712 100.067 865.712V861.578C65.5409 861.578 40.6712 848.427 24.955 823.784C9.14524 798.994 2.42469 762.302 4.99808 714.957L0.870841 714.733Z" fill="#FBFAFA" fill-opacity="0.4"/>
<path d="M356.078 7.16379C357.136 7.59338 357.645 8.79887 357.215 9.85633L350.215 27.0886C349.785 28.1461 348.58 28.6551 347.522 28.2255C346.465 27.7959 345.956 26.5904 346.385 25.5329L352.608 10.2153L337.29 3.99257C336.233 3.56298 335.724 2.35749 336.154 1.30003C336.583 0.24257 337.789 -0.266417 338.846 0.163176L356.078 7.16379ZM356.104 10.9824C309.601 30.6172 224.527 75.6071 224.527 174.805L220.394 174.805C220.394 72.7499 308 26.8065 354.497 7.17457L356.104 10.9824Z" fill="#FBFAFA" fill-opacity="0.4"/>
<path d="M112.467 312.877L110.4 312.877L110.4 317.011L112.467 317.011L112.467 312.877ZM112.467 317.011C145.153 317.011 173.209 298.714 193.015 271.918C212.818 245.125 224.526 209.658 224.526 174.805L220.392 174.805C220.392 208.792 208.957 243.394 189.691 269.461C170.427 295.524 143.488 312.877 112.467 312.877L112.467 317.011Z" fill="#FBFAFA" fill-opacity="0.4"/>
<path d="M110.4 314.944C46.6862 314.944 4.9999 367.936 4.99991 456.512" stroke="#FBFAFA" stroke-opacity="0.4" stroke-width="4.13333"/>
<path d="M109.597 598.334C50.4671 598.334 5.00042 571.343 5.00042 456.512" stroke="#FBFAFA" stroke-opacity="0.4" stroke-width="4.13333"/>
</svg>
