<svg width="60" height="48" viewBox="0 0 60 48" fill="none" xmlns="http://www.w3.org/2000/svg">
<path d="M7.30999 43.4114L14.8841 22.6038C15.0834 22.0055 15.7478 21.7396 16.2793 21.939C16.8773 22.1384 17.143 22.8032 16.9437 23.335L9.36961 44.1427C9.23673 44.608 8.77166 44.8739 8.30658 44.8739C8.1737 44.8739 8.04082 44.8739 7.90794 44.8075C7.44287 44.608 7.11067 44.0097 7.30999 43.4114Z" fill="#FFD5AA"/>
<path d="M20.7308 21.939C21.3288 21.7396 21.9267 22.0055 22.126 22.6038L29.7002 43.4114C29.8995 44.0097 29.6337 44.608 29.0358 44.8075C28.9029 44.8739 28.77 44.8739 28.6371 44.8739C28.172 44.8739 27.7734 44.608 27.5741 44.1427L20.0664 23.335C19.8671 22.8032 20.1329 22.1384 20.7308 21.939Z" fill="#FFD5AA"/>
<path d="M4.65224 26.2602H32.2911C34.6829 26.2602 36.6097 24.3323 36.6097 21.9391V4.78775C36.6097 2.39454 34.6829 0.466675 32.2911 0.466675H4.71868C2.32685 0.466675 0.400106 2.39454 0.400106 4.78775V21.9391C0.333666 24.3323 2.26041 26.2602 4.65224 26.2602Z" fill="#F7F7F7"/>
<path d="M48.702 15.2247C51.7843 15.2247 54.2829 12.7246 54.2829 9.64055C54.2829 6.55651 51.7843 4.0564 48.702 4.0564C45.6198 4.0564 43.1211 6.55651 43.1211 9.64055C43.1211 12.7246 45.6198 15.2247 48.702 15.2247Z" fill="#FFD5AA"/>
<path d="M33.8854 28.5869C34.0847 28.5869 34.3505 28.5869 34.5498 28.4539C35.0813 28.188 35.2806 27.4567 34.9484 26.9249L27.3743 13.3634C27.1086 12.8315 26.3777 12.6321 25.8462 12.9645C25.3147 13.2304 25.1154 13.9617 25.4476 14.4935L33.0217 28.1215C33.221 28.3209 33.4868 28.5204 33.8854 28.5869Z" fill="#FFD971"/>
<path d="M32.8895 24.9306L40.5301 20.1442C41.726 18.3492 43.7192 17.1526 45.9117 16.8867C45.9117 16.8867 49.7652 16.6873 51.2933 16.8867C55.8776 17.485 59.3989 21.4072 59.3989 26.0607V33.3733C59.3989 34.9023 58.203 36.0989 56.6749 36.0989V45.4723C56.6749 46.536 55.8112 47.4667 54.6817 47.4667H41.1281C40.065 47.4667 39.1349 46.6024 39.1349 45.4723V28.055L36.0122 29.9829C34.617 30.8471 32.7567 30.4483 31.893 29.0522C31.0292 27.6562 31.4279 25.7948 32.8895 24.9306Z" fill="#5C8EFF"/>
<path d="M4.65234 7.04796C4.65234 6.25023 5.31674 5.58545 6.11401 5.58545H23.0561C23.8534 5.58545 24.5178 6.25023 24.5178 7.04796C24.5178 7.8457 23.8534 8.51048 23.0561 8.51048H6.11401C5.31674 8.51048 4.65234 7.8457 4.65234 7.04796Z" fill="#5C8EFF"/>
<path d="M6.11401 11.9009H17.9403C18.7375 11.9009 19.4019 12.5657 19.4019 13.3634C19.4019 14.1611 18.7375 14.8259 17.9403 14.8259H6.11401C5.31674 14.8259 4.65234 14.1611 4.65234 13.3634C4.65234 12.5657 5.31674 11.9009 6.11401 11.9009Z" fill="#5C8EFF"/>
<path d="M6.11401 18.2163H17.9403C18.7375 18.2163 19.4019 18.8811 19.4019 19.6788C19.4019 20.4766 18.7375 21.1413 17.9403 21.1413H6.11401C5.31674 21.1413 4.65234 20.4766 4.65234 19.6788C4.65234 18.8811 5.31674 18.2163 6.11401 18.2163Z" fill="#5C8EFF"/>
</svg>
