<svg width="33" height="33" viewBox="0 0 33 33" fill="none" xmlns="http://www.w3.org/2000/svg">
<rect x="0.5" y="0.5" width="32" height="32" rx="7.5" stroke="white"/>
<path d="M6.81508 12.3842H26.1752C26.6931 12.3842 27.1178 11.9595 27.1178 11.4415C27.1178 10.9236 26.6931 10.5093 26.1752 10.5093H6.81508C6.29715 10.5093 5.88281 10.9236 5.88281 11.4415C5.88281 11.9491 6.29715 12.3842 6.81508 12.3842ZM6.81508 17.0455H26.1752C26.6931 17.0455 27.1178 16.6208 27.1178 16.1132C27.1178 15.585 26.6931 15.1603 26.1752 15.1603H6.81508C6.29715 15.1603 5.88281 15.585 5.88281 16.1132C5.88281 16.6208 6.29715 17.0455 6.81508 17.0455ZM6.81508 21.7172H26.1752C26.6931 21.7172 27.1178 21.2925 27.1178 20.7642C27.1178 20.2463 26.6931 19.832 26.1752 19.832H6.81508C6.29715 19.832 5.88281 20.2567 5.88281 20.7642C5.88281 21.2822 6.29715 21.7172 6.81508 21.7172Z" fill="#FBFAFA"/>
</svg>
