<svg width="555" height="196" viewBox="0 0 755 196" fill="none" xmlns="http://www.w3.org/2000/svg">
<path d="M253 98C253 179.144 229.691 195 131 195" stroke="#FBFAFA" stroke-opacity="0.4" stroke-width="2"/>
<path d="M2 98C2 97.4477 1.55228 97 1 97C0.447715 97 0 97.4477 0 98L2 98ZM0 98C0 138.767 6.18978 163.493 25.9762 177.87C35.8322 185.031 48.9699 189.552 66.1647 192.292C83.3613 195.031 104.695 196 131 196V194C104.724 194 83.5167 193.031 66.4793 190.316C49.4401 187.602 36.6505 183.153 27.1518 176.252C8.22892 162.502 2 138.729 2 98L0 98Z" fill="#FBFAFA" fill-opacity="0.4"/>
<path d="M746.293 97.2929C746.683 96.9024 747.317 96.9024 747.707 97.2929L754.071 103.657C754.462 104.047 754.462 104.681 754.071 105.071C753.681 105.462 753.047 105.462 752.657 105.071L747 99.4142L741.343 105.071C740.953 105.462 740.319 105.462 739.929 105.071C739.538 104.681 739.538 104.047 739.929 103.657L746.293 97.2929ZM748 98C748 138.593 741.81 163.317 722.025 177.737C712.17 184.921 699.032 189.475 681.837 192.242C664.64 195.009 643.306 196 617 196V194C643.276 194 664.482 193.009 681.519 190.267C698.558 187.526 711.348 183.045 720.847 176.121C739.772 162.327 746 138.551 746 98L748 98Z" fill="#FBFAFA" fill-opacity="0.4"/>
<path d="M497 99V98H495V99L497 99ZM495 99C495 139.72 500.753 164.192 519.186 178.333C528.375 185.382 540.621 189.787 556.636 192.439C572.652 195.09 592.516 196 617 196V194C592.543 194 572.812 193.09 556.963 190.466C541.114 187.842 529.229 183.517 520.403 176.746C502.805 163.246 497 139.718 497 99L495 99Z" fill="#FBFAFA" fill-opacity="0.4"/>
<path d="M496 98C496 16.5045 472.882 0.999997 375 1" stroke="#FBFAFA" stroke-opacity="0.4" stroke-width="2"/>
<path d="M253 98C253 16.5616 276.309 0.999994 375 1" stroke="#FBFAFA" stroke-opacity="0.4" stroke-width="2"/>
</svg>
