<svg width="336" height="272" viewBox="0 0 336 272" fill="none" xmlns="http://www.w3.org/2000/svg">
<path d="M192.679 136.981C192.679 136.981 206.98 126.266 213.905 133.67C220.831 141.074 204.305 146.546 204.305 146.546L192.679 136.981Z" fill="#24285B"/>
<path d="M205.316 71.5275L233.598 101.04C234.061 101.524 234.657 101.895 235.342 102.125C236.027 102.354 236.783 102.437 237.554 102.367C238.325 102.296 239.091 102.075 239.794 101.718C240.497 101.362 241.119 100.88 241.614 100.308L259.584 79.6299L266.243 84.0668C266.243 84.0668 248.399 116.761 236.653 118.744C224.907 120.727 201.86 104.632 201.86 104.632L205.316 71.5275Z" fill="#FFC935"/>
<path opacity="0.08" d="M205.316 71.5275L233.598 101.04C234.061 101.524 234.657 101.895 235.342 102.125C236.027 102.354 236.783 102.437 237.554 102.367C238.325 102.296 239.091 102.075 239.794 101.718C240.497 101.362 241.119 100.88 241.614 100.308L259.584 79.6299L266.243 84.0668C266.243 84.0668 248.399 116.761 236.653 118.744C224.907 120.727 201.86 104.632 201.86 104.632L205.316 71.5275Z" fill="black"/>
<path d="M194.107 42.6298L187.091 62.0753L199.069 69.1546L199.414 48.6705L194.107 42.6298Z" fill="#F4A28C"/>
<path opacity="0.31" d="M199.519 51.8621C198.052 51.4815 196.803 50.7132 195.927 49.6524C195.927 49.6524 195.45 53.2752 199.274 56.9594L199.519 51.8621Z" fill="#CE8172"/>
<path d="M204.273 41.2702C204.273 41.2702 204.726 47.1951 203.476 51.2758C203.356 51.6724 203.149 52.0542 202.869 52.399C202.588 52.7438 202.239 53.0447 201.841 53.2841C201.443 53.5236 201.005 53.6968 200.553 53.7937C200.1 53.8906 199.641 53.9093 199.203 53.8485C197.769 53.7436 196.456 53.2692 195.421 52.4828C194.386 51.6964 193.674 50.6316 193.371 49.4167L191.445 44.3763C191.19 43.3157 191.328 42.1675 191.842 41.09C192.356 40.0124 193.22 39.0585 194.315 38.3594C198.237 35.5527 204.22 37.6246 204.273 41.2702Z" fill="#F4A28C"/>
<path d="M204.341 45.0371L206.2 47.1646C206.295 47.289 206.352 47.4357 206.366 47.5925C206.379 47.7492 206.349 47.9115 206.278 48.0658C206.207 48.2202 206.096 48.362 205.956 48.4796C205.816 48.5972 205.65 48.6871 205.472 48.7419L202.837 49.4233L204.341 45.0371Z" fill="#F4A28C"/>
<path d="M190.668 50.6329L189.546 42.6667C189.546 42.6667 184.506 41.8585 186.516 38.8752C188.525 35.8918 190.292 37.8889 190.912 34.4596C191.531 31.0302 194.775 30.3492 196.707 32.288C198.64 34.2267 198.018 31.5337 200.852 31.1806C203.686 30.8275 204.238 31.8842 204.032 33.8035C203.826 35.7228 208.127 33.7075 208.77 36.0544C209.414 38.4013 209.216 40.7386 202.243 41.0799C195.27 41.4211 199.505 46.526 190.668 50.6329Z" fill="#423020"/>
<path d="M196.819 47.1224C196.819 47.1224 196.824 44.8119 194.824 45.188C192.824 45.5642 192.805 48.8816 195.491 48.9375L196.819 47.1224Z" fill="#F4A28C"/>
<path d="M178.794 206.449L171.486 217.299C163.708 228.819 151.484 237.797 137.402 242.331L125.699 246.13C125.283 246.269 124.847 246.307 124.439 246.24C124.031 246.173 123.668 246.003 123.391 245.75C123.114 245.496 122.935 245.17 122.873 244.808C122.812 244.446 122.87 244.062 123.043 243.701L134.443 219.201L178.794 206.449Z" fill="#17396C"/>
<path d="M159.367 159.605L146.526 157.11C132.879 154.458 117.882 156.756 104.718 163.517L93.761 169.115C93.369 169.311 93.0337 169.593 92.793 169.929C92.5523 170.266 92.416 170.643 92.3995 171.017C92.3831 171.392 92.4873 171.749 92.7001 172.049C92.913 172.348 93.2259 172.578 93.6035 172.711L118.996 181.953L159.367 159.605Z" fill="#17396C"/>
<path d="M319.016 120.824C319.016 120.824 291.925 189.846 134.477 219.188L119.02 181.912C251.034 91.2391 319.016 120.824 319.016 120.824Z" fill="#255DB2"/>
<path opacity="0.08" d="M211.561 131.933C211.561 131.933 228.939 134.328 231.34 147.213C233.741 160.098 221.965 183.846 221.965 183.846C221.965 183.846 230.382 192.276 216.491 191.808L212.303 187.674L213.539 164.565L209.111 146.64L196.762 137.902L211.561 131.933Z" fill="black"/>
<path d="M199.087 69.1987L187.105 62.1105C187.105 62.1105 159.388 71.2116 156.879 93.2045C154.369 115.197 159.299 139.807 159.299 139.807L192.681 137.03C192.681 137.03 239.643 97.2994 199.087 69.1987Z" fill="#FFE30C"/>
<path d="M159.293 139.759C159.293 139.759 156.335 163.972 172.326 159.87C180.601 157.86 188.975 156.544 197.33 155.941C199.421 155.78 201.41 156.286 202.93 157.365C204.45 158.445 205.398 160.026 205.6 161.817L207.928 182.721L215.942 184.278L219.993 158.051C220.608 153.924 219.641 149.916 217.248 146.668C214.855 143.421 211.174 141.121 206.794 140.138L192.719 136.964L159.293 139.759Z" fill="#24285B"/>
<path opacity="0.08" d="M185.456 93.8233C185.456 93.8233 194.789 105.931 189.666 117.309C184.543 128.687 179.244 138.051 179.244 138.051L192.728 136.928C192.728 136.928 205.257 125.883 210.737 114.325C216.217 102.768 193.215 87.8232 185.456 93.8233Z" fill="black"/>
<path d="M176.973 82.0488C173.088 70.57 189.909 59.9688 200.36 67.1864C203.482 69.2904 206.037 71.9542 207.889 75.0357C214.744 86.7054 252.155 131.35 252.155 131.35L243.572 137.629C243.572 137.629 201.46 109.383 183.878 92.37C180.748 89.4627 178.4 85.9534 176.973 82.0488Z" fill="#FFC935"/>
<path opacity="0.19" d="M241.127 142.405L263.982 132.927C265.93 132.119 268.054 132.777 268.725 134.396C269.397 136.015 268.362 137.982 266.413 138.79L243.558 148.268C241.61 149.076 239.486 148.418 238.815 146.799C238.143 145.18 239.179 143.213 241.127 142.405Z" fill="#6CA1F0"/>
<path opacity="0.36" d="M176.973 82.0488C173.088 70.57 189.909 59.9688 200.36 67.1864C203.482 69.2904 206.037 71.9542 207.889 75.0357C214.744 86.7054 252.155 131.35 252.155 131.35L243.572 137.629C243.572 137.629 201.46 109.383 183.878 92.37C180.748 89.4627 178.4 85.9534 176.973 82.0488Z" fill="#FFFCE6"/>
<path d="M250.75 132.396C250.75 132.396 262.002 134.697 256.845 139.449C251.688 144.201 243.58 137.646 243.58 137.646L250.75 132.396Z" fill="#F4A28C"/>
<path d="M112.75 184.511L119.016 181.913L134.47 219.179L128.204 221.777L112.75 184.511Z" fill="#17396C"/>
<path d="M115.029 190.005C115.029 190.005 59.835 211.903 50.3388 228.425C40.8425 244.947 125.143 214.394 125.143 214.394L115.029 190.005Z" fill="#FFE30C"/>
<path opacity="0.33" d="M117.905 196.939C117.905 196.939 75.2123 213.262 74.5033 218.373C73.7944 223.483 122.563 208.171 122.563 208.171L117.905 196.939Z" fill="white"/>
<path d="M264.125 82.6582C264.125 82.6582 273.213 75.5802 266.499 71.7771C259.786 67.974 259.606 79.6208 259.606 79.6208L264.125 82.6582Z" fill="#F4A28C"/>
<path d="M255.172 61.5311L266.572 60.1675L266.674 75.7995L255.274 77.1631L255.172 61.5311Z" fill="#FFD200"/>
<path d="M214.121 183.862C214.121 183.862 214.842 189.824 218.47 190.1C218.47 190.1 219.027 194.317 213.749 194.008C208.472 193.698 207.382 187.827 207.382 187.827L209.431 182.951L214.121 183.862Z" fill="#FFC935"/>
<path d="M272.156 116.975L288.628 156.697C288.628 156.697 310.198 141.428 319.016 120.824C319.016 120.824 300.993 113.237 272.156 116.975Z" fill="#17396C"/>
</svg>
