<svg width="48" height="49" viewBox="0 0 48 49" fill="none" xmlns="http://www.w3.org/2000/svg">
<mask id="path-1-inside-1_565_4419" fill="white">
<path d="M32.9826 2.61855C43.6566 5.45999 49.9778 16.4088 47.1015 27.0734L45.3983 33.3885C42.522 44.0531 31.5373 50.3951 20.8633 47.5536L15.327 46.0799C4.65306 43.2384 -1.66818 32.2896 1.20815 21.625L2.91137 15.3099C5.7877 4.64527 16.7724 -1.69666 27.4464 1.14478L32.9826 2.61855Z"/>
</mask>
<path d="M37.6503 -6.48712C52.5215 -2.52835 61.3284 12.7258 57.3211 27.5841L57.2154 27.9759C53.1496 43.0505 37.6226 52.015 22.5348 47.9986L20.8633 47.5536C26.2003 48.9743 32.8585 41.4807 35.7348 30.8161L37.4381 24.501C38.8762 19.1687 35.7156 13.6943 30.3786 12.2736L37.6503 -6.48712ZM-3.9999 40.935L8.11942 -4.0001L-3.9999 40.935ZM3.46745 13.2481C7.47482 -1.61012 22.779 -10.4459 37.6503 -6.48712C52.5215 -2.52835 61.3284 12.7258 57.3211 27.5841L37.4381 24.501C38.8762 19.1687 35.7156 13.6943 30.3786 12.2736L24.8423 10.7998C14.1684 7.95834 4.34953 9.97759 2.91137 15.3099L3.46745 13.2481ZM40.1903 52.6985L-3.9999 40.935L40.1903 52.6985Z" fill="#FBFAFA" fill-opacity="0.2" mask="url(#path-1-inside-1_565_4419)"/>
</svg>
