<svg width="39" height="38" viewBox="0 0 39 38" fill="none" xmlns="http://www.w3.org/2000/svg">
<mask id="path-1-inside-1_565_2394" fill="white">
<path d="M32.1809 4.85226C39.9098 11.5878 40.6745 23.2781 33.889 30.9632L33.3322 31.5937C26.5467 39.2788 14.7804 40.0485 7.05145 33.3129C-0.67746 26.5774 -1.44221 14.8871 5.34334 7.20204L5.9001 6.57148C12.6856 -1.1136 24.452 -1.88332 32.1809 4.85226Z"/>
</mask>
<path d="M42.5691 0.641103C52.3798 9.19093 53.3505 24.03 44.7372 33.7851L44.4589 34.1004C35.6919 44.0296 20.4897 45.024 10.5038 36.3216L7.05145 33.3129C10.6167 36.42 19.0077 32.7088 25.7933 25.0237L26.3501 24.3932C29.4802 20.8481 29.1274 15.4555 25.5621 12.3484L42.5691 0.641103ZM-6.94298 21.1171L18.1864 -7.34358L-6.94298 21.1171ZM9.20947 2.8234C17.8227 -6.93168 32.7583 -7.90873 42.5691 0.641103C52.3798 9.19093 53.3505 24.03 44.7372 33.7851L26.3501 24.3932C29.4802 20.8481 29.1274 15.4555 25.5621 12.3484C17.8332 5.61283 9.03022 3.02641 5.9001 6.57147L9.20947 2.8234ZM21.0459 45.5088L-6.94298 21.1171L21.0459 45.5088Z" fill="#FBFAFA" fill-opacity="0.4" mask="url(#path-1-inside-1_565_2394)"/>
</svg>
