<svg width="480" height="167" viewBox="0 0 480 167" fill="none" xmlns="http://www.w3.org/2000/svg">
<g filter="url(#filter0_d_1383_12313)">
<rect width="542.803" height="64.5632" transform="matrix(0.997693 -0.0678805 0.0427351 0.999086 -16 68.8457)" fill="#EC286F"/>
</g>
<g filter="url(#filter1_d_1383_12313)">
<rect x="-11" y="52" width="491" height="63" fill="url(#paint0_linear_1383_12313)"/>
</g>
<g clip-path="url(#clip0_1383_12313)">
<path d="M5.56818 91L7.47727 79.3636H8.61364L6.70455 91H5.56818ZM0.272727 87.7727L0.454545 86.6364H9.13636L8.95455 87.7727H0.272727ZM1.47727 91L3.38636 79.3636H4.52273L2.61364 91H1.47727ZM0.954545 83.7273L1.13636 82.5909H9.81818L9.63636 83.7273H0.954545ZM11.9801 91H10.5028L14.7756 79.3636H16.2301L20.5028 91H19.0256L15.5483 81.2045H15.4574L11.9801 91ZM12.5256 86.4545H18.4801V87.7045H12.5256V86.4545ZM22.3153 91V79.3636H26.2472C27.1563 79.3636 27.9025 79.5189 28.4858 79.8295C29.0691 80.1364 29.5009 80.5587 29.7812 81.0966C30.0616 81.6345 30.2017 82.2462 30.2017 82.9318C30.2017 83.6174 30.0616 84.2254 29.7812 84.7557C29.5009 85.286 29.071 85.7027 28.4915 86.0057C27.9119 86.3049 27.1714 86.4545 26.2699 86.4545H23.0881V85.1818H26.2244C26.8456 85.1818 27.3456 85.0909 27.7244 84.9091C28.107 84.7273 28.3835 84.4697 28.554 84.1364C28.7282 83.7992 28.8153 83.3977 28.8153 82.9318C28.8153 82.4659 28.7282 82.0587 28.554 81.7102C28.3797 81.3617 28.1013 81.0928 27.7188 80.9034C27.3362 80.7102 26.8305 80.6136 26.2017 80.6136H23.7244V91H22.3153ZM27.7926 85.7727L30.6562 91H29.0199L26.2017 85.7727H27.7926ZM36.1406 91H32.5497V79.3636H36.2997C37.4285 79.3636 38.3944 79.5966 39.1974 80.0625C40.0005 80.5246 40.616 81.1894 41.044 82.0568C41.4721 82.9205 41.6861 83.9545 41.6861 85.1591C41.6861 86.3712 41.4702 87.4148 41.0384 88.2898C40.6065 89.161 39.9777 89.8314 39.152 90.3011C38.3262 90.767 37.3224 91 36.1406 91ZM33.9588 89.75H36.0497C37.0118 89.75 37.8092 89.5644 38.4418 89.1932C39.0743 88.822 39.5459 88.2936 39.8565 87.608C40.1671 86.9223 40.3224 86.1061 40.3224 85.1591C40.3224 84.2197 40.169 83.411 39.8622 82.733C39.5554 82.0511 39.0971 81.5284 38.4872 81.1648C37.8774 80.7973 37.1179 80.6136 36.2088 80.6136H33.9588V89.75ZM51.6861 79.3636H53.0952V87.0682C53.0952 87.8636 52.9077 88.5739 52.5327 89.1989C52.1615 89.8201 51.6368 90.3106 50.9588 90.6705C50.2808 91.0265 49.4853 91.2045 48.5724 91.2045C47.6596 91.2045 46.8641 91.0265 46.1861 90.6705C45.508 90.3106 44.9815 89.8201 44.6065 89.1989C44.2353 88.5739 44.0497 87.8636 44.0497 87.0682V79.3636H45.4588V86.9545C45.4588 87.5227 45.5838 88.0284 45.8338 88.4716C46.0838 88.911 46.4399 89.2576 46.902 89.5114C47.3679 89.7614 47.9247 89.8864 48.5724 89.8864C49.2202 89.8864 49.777 89.7614 50.2429 89.5114C50.7088 89.2576 51.0649 88.911 51.3111 88.4716C51.5611 88.0284 51.6861 87.5227 51.6861 86.9545V79.3636ZM57.3182 79.3636V91H55.9091V79.3636H57.3182ZM69.3707 79.3636V91H68.0071L61.6662 81.8636H61.5526V91H60.1435V79.3636H61.5071L67.8707 88.5227H67.9844V79.3636H69.3707ZM82.0085 85.1818C82.0085 86.4091 81.7869 87.4697 81.3438 88.3636C80.9006 89.2576 80.2926 89.947 79.5199 90.4318C78.7472 90.9167 77.8646 91.1591 76.8722 91.1591C75.8797 91.1591 74.9972 90.9167 74.2244 90.4318C73.4517 89.947 72.8438 89.2576 72.4006 88.3636C71.9574 87.4697 71.7358 86.4091 71.7358 85.1818C71.7358 83.9545 71.9574 82.8939 72.4006 82C72.8438 81.1061 73.4517 80.4167 74.2244 79.9318C74.9972 79.447 75.8797 79.2045 76.8722 79.2045C77.8646 79.2045 78.7472 79.447 79.5199 79.9318C80.2926 80.4167 80.9006 81.1061 81.3438 82C81.7869 82.8939 82.0085 83.9545 82.0085 85.1818ZM80.6449 85.1818C80.6449 84.1742 80.4763 83.3239 80.1392 82.6307C79.8059 81.9375 79.3532 81.4129 78.7812 81.0568C78.2131 80.7008 77.5767 80.5227 76.8722 80.5227C76.1676 80.5227 75.5294 80.7008 74.9574 81.0568C74.3892 81.4129 73.9366 81.9375 73.5994 82.6307C73.2661 83.3239 73.0994 84.1742 73.0994 85.1818C73.0994 86.1894 73.2661 87.0398 73.5994 87.733C73.9366 88.4261 74.3892 88.9508 74.9574 89.3068C75.5294 89.6629 76.1676 89.8409 76.8722 89.8409C77.5767 89.8409 78.2131 89.6629 78.7812 89.3068C79.3532 88.9508 79.8059 88.4261 80.1392 87.733C80.4763 87.0398 80.6449 86.1894 80.6449 85.1818Z" fill="#FBFAFA"/>
<path d="M136.67 91L138.579 79.3636H139.715L137.806 91H136.67ZM131.374 87.7727L131.556 86.6364H140.238L140.056 87.7727H131.374ZM132.579 91L134.488 79.3636H135.624L133.715 91H132.579ZM132.056 83.7273L132.238 82.5909H140.92L140.738 83.7273H132.056ZM151.968 83H150.559C150.476 82.5947 150.33 82.2386 150.121 81.9318C149.917 81.625 149.667 81.3674 149.371 81.1591C149.08 80.947 148.756 80.7879 148.4 80.6818C148.044 80.5758 147.673 80.5227 147.286 80.5227C146.582 80.5227 145.943 80.7008 145.371 81.0568C144.803 81.4129 144.351 81.9375 144.013 82.6307C143.68 83.3239 143.513 84.1742 143.513 85.1818C143.513 86.1894 143.68 87.0398 144.013 87.733C144.351 88.4261 144.803 88.9508 145.371 89.3068C145.943 89.6629 146.582 89.8409 147.286 89.8409C147.673 89.8409 148.044 89.7879 148.4 89.6818C148.756 89.5758 149.08 89.4186 149.371 89.2102C149.667 88.9981 149.917 88.7386 150.121 88.4318C150.33 88.1212 150.476 87.7652 150.559 87.3636H151.968C151.862 87.9583 151.669 88.4905 151.388 88.9602C151.108 89.4299 150.76 89.8295 150.343 90.1591C149.926 90.4848 149.459 90.733 148.94 90.9034C148.424 91.0739 147.873 91.1591 147.286 91.1591C146.294 91.1591 145.411 90.9167 144.638 90.4318C143.866 89.947 143.258 89.2576 142.815 88.3636C142.371 87.4697 142.15 86.4091 142.15 85.1818C142.15 83.9545 142.371 82.8939 142.815 82C143.258 81.1061 143.866 80.4167 144.638 79.9318C145.411 79.447 146.294 79.2045 147.286 79.2045C147.873 79.2045 148.424 79.2898 148.94 79.4602C149.459 79.6307 149.926 79.8807 150.343 80.2102C150.76 80.536 151.108 80.9337 151.388 81.4034C151.669 81.8693 151.862 82.4015 151.968 83ZM164.063 85.1818C164.063 86.4091 163.842 87.4697 163.398 88.3636C162.955 89.2576 162.347 89.947 161.575 90.4318C160.802 90.9167 159.919 91.1591 158.927 91.1591C157.934 91.1591 157.052 90.9167 156.279 90.4318C155.506 89.947 154.898 89.2576 154.455 88.3636C154.012 87.4697 153.79 86.4091 153.79 85.1818C153.79 83.9545 154.012 82.8939 154.455 82C154.898 81.1061 155.506 80.4167 156.279 79.9318C157.052 79.447 157.934 79.2045 158.927 79.2045C159.919 79.2045 160.802 79.447 161.575 79.9318C162.347 80.4167 162.955 81.1061 163.398 82C163.842 82.8939 164.063 83.9545 164.063 85.1818ZM162.7 85.1818C162.7 84.1742 162.531 83.3239 162.194 82.6307C161.861 81.9375 161.408 81.4129 160.836 81.0568C160.268 80.7008 159.631 80.5227 158.927 80.5227C158.222 80.5227 157.584 80.7008 157.012 81.0568C156.444 81.4129 155.991 81.9375 155.654 82.6307C155.321 83.3239 155.154 84.1742 155.154 85.1818C155.154 86.1894 155.321 87.0398 155.654 87.733C155.991 88.4261 156.444 88.9508 157.012 89.3068C157.584 89.6629 158.222 89.8409 158.927 89.8409C159.631 89.8409 160.268 89.6629 160.836 89.3068C161.408 88.9508 161.861 88.4261 162.194 87.733C162.531 87.0398 162.7 86.1894 162.7 85.1818ZM170.16 91.1591C169.41 91.1591 168.741 91.0303 168.154 90.7727C167.571 90.5152 167.107 90.1572 166.762 89.6989C166.421 89.2367 166.236 88.7008 166.205 88.0909H167.637C167.667 88.4659 167.796 88.7898 168.023 89.0625C168.251 89.3314 168.548 89.5398 168.915 89.6875C169.283 89.8352 169.69 89.9091 170.137 89.9091C170.637 89.9091 171.08 89.822 171.467 89.6477C171.853 89.4735 172.156 89.2311 172.376 88.9205C172.595 88.6098 172.705 88.25 172.705 87.8409C172.705 87.4129 172.599 87.036 172.387 86.7102C172.175 86.3807 171.864 86.1231 171.455 85.9375C171.046 85.7519 170.546 85.6591 169.955 85.6591H169.023V84.4091H169.955C170.417 84.4091 170.823 84.3258 171.171 84.1591C171.523 83.9924 171.798 83.7576 171.995 83.4545C172.196 83.1515 172.296 82.7955 172.296 82.3864C172.296 81.9924 172.209 81.6496 172.035 81.358C171.861 81.0663 171.614 80.839 171.296 80.6761C170.982 80.5133 170.611 80.4318 170.183 80.4318C169.781 80.4318 169.402 80.5057 169.046 80.6534C168.694 80.7973 168.406 81.0076 168.183 81.2841C167.959 81.5568 167.838 81.8864 167.819 82.2727H166.455C166.478 81.6629 166.662 81.1288 167.006 80.6705C167.351 80.2083 167.802 79.8485 168.359 79.5909C168.919 79.3333 169.535 79.2045 170.205 79.2045C170.925 79.2045 171.542 79.3504 172.058 79.642C172.573 79.9299 172.969 80.3106 173.245 80.7841C173.522 81.2576 173.66 81.7689 173.66 82.3182C173.66 82.9735 173.487 83.5322 173.143 83.9943C172.802 84.4564 172.338 84.7765 171.751 84.9545V85.0455C172.486 85.1667 173.059 85.4792 173.472 85.983C173.885 86.483 174.092 87.1023 174.092 87.8409C174.092 88.4735 173.919 89.0417 173.575 89.5455C173.234 90.0455 172.768 90.4394 172.177 90.7273C171.586 91.0152 170.914 91.1591 170.16 91.1591ZM175.62 93.8182V89.75H176.37C176.628 89.5152 176.87 89.1837 177.097 88.7557C177.328 88.3239 177.523 87.7481 177.683 87.0284C177.845 86.3049 177.953 85.3864 178.006 84.2727L178.256 79.3636H185.165V89.75H186.506V93.7955H185.165V91H176.961V93.8182H175.62ZM178.052 89.75H183.825V80.6136H179.529L179.347 84.2727C179.302 85.1212 179.222 85.8902 179.109 86.5795C178.995 87.2652 178.849 87.8731 178.671 88.4034C178.493 88.9299 178.287 89.3788 178.052 89.75ZM189.113 91H187.636L191.908 79.3636H193.363L197.636 91H196.158L192.681 81.2045H192.59L189.113 91ZM189.658 86.4545H195.613V87.7045H189.658V86.4545ZM199.448 91V79.3636H200.857V84.5455H207.062V79.3636H208.471V91H207.062V85.7955H200.857V91H199.448ZM211.292 79.3636H212.678V88.5227H212.792L219.156 79.3636H220.519V91H219.11V81.8636H218.996L212.656 91H211.292V79.3636ZM223.339 91V79.3636H230.362V80.6136H224.748V84.5455H229.998V85.7955H224.748V89.75H230.452V91H223.339ZM232.901 79.3636H234.288V88.5227H234.401L240.765 79.3636H242.129V91H240.719V81.8636H240.606L234.265 91H232.901V79.3636ZM251.971 79.3636V80.6136H246.357V91H244.948V79.3636H251.971ZM254.151 91V79.3636H258.083C258.996 79.3636 259.742 79.5284 260.322 79.858C260.905 80.1837 261.337 80.625 261.617 81.1818C261.897 81.7386 262.038 82.3598 262.038 83.0455C262.038 83.7311 261.897 84.3542 261.617 84.9148C261.341 85.4754 260.913 85.9223 260.333 86.2557C259.754 86.5852 259.011 86.75 258.106 86.75H255.288V85.5H258.06C258.685 85.5 259.187 85.392 259.566 85.1761C259.945 84.9602 260.219 84.6686 260.39 84.3011C260.564 83.9299 260.651 83.5114 260.651 83.0455C260.651 82.5795 260.564 82.1629 260.39 81.7955C260.219 81.428 259.943 81.1402 259.56 80.9318C259.178 80.7197 258.67 80.6136 258.038 80.6136H255.56V91H254.151Z" fill="#FBFAFA"/>
<path d="M316.912 91L318.821 79.3636H319.957L318.048 91H316.912ZM311.616 87.7727L311.798 86.6364H320.48L320.298 87.7727H311.616ZM312.821 91L314.73 79.3636H315.866L313.957 91H312.821ZM312.298 83.7273L312.48 82.5909H321.162L320.98 83.7273H312.298ZM322.847 91V79.3636H326.778C327.691 79.3636 328.438 79.5284 329.017 79.858C329.6 80.1837 330.032 80.625 330.312 81.1818C330.593 81.7386 330.733 82.3598 330.733 83.0455C330.733 83.7311 330.593 84.3542 330.312 84.9148C330.036 85.4754 329.608 85.9223 329.028 86.2557C328.449 86.5852 327.706 86.75 326.801 86.75H323.983V85.5H326.756C327.381 85.5 327.883 85.392 328.261 85.1761C328.64 84.9602 328.915 84.6686 329.085 84.3011C329.259 83.9299 329.347 83.5114 329.347 83.0455C329.347 82.5795 329.259 82.1629 329.085 81.7955C328.915 81.428 328.638 81.1402 328.256 80.9318C327.873 80.7197 327.366 80.6136 326.733 80.6136H324.256V91H322.847ZM342.821 85.1818C342.821 86.4091 342.599 87.4697 342.156 88.3636C341.713 89.2576 341.105 89.947 340.332 90.4318C339.56 90.9167 338.677 91.1591 337.685 91.1591C336.692 91.1591 335.81 90.9167 335.037 90.4318C334.264 89.947 333.656 89.2576 333.213 88.3636C332.77 87.4697 332.548 86.4091 332.548 85.1818C332.548 83.9545 332.77 82.8939 333.213 82C333.656 81.1061 334.264 80.4167 335.037 79.9318C335.81 79.447 336.692 79.2045 337.685 79.2045C338.677 79.2045 339.56 79.447 340.332 79.9318C341.105 80.4167 341.713 81.1061 342.156 82C342.599 82.8939 342.821 83.9545 342.821 85.1818ZM341.457 85.1818C341.457 84.1742 341.289 83.3239 340.952 82.6307C340.618 81.9375 340.166 81.4129 339.594 81.0568C339.026 80.7008 338.389 80.5227 337.685 80.5227C336.98 80.5227 336.342 80.7008 335.77 81.0568C335.202 81.4129 334.749 81.9375 334.412 82.6307C334.079 83.3239 333.912 84.1742 333.912 85.1818C333.912 86.1894 334.079 87.0398 334.412 87.733C334.749 88.4261 335.202 88.9508 335.77 89.3068C336.342 89.6629 336.98 89.8409 337.685 89.8409C338.389 89.8409 339.026 89.6629 339.594 89.3068C340.166 88.9508 340.618 88.4261 340.952 87.733C341.289 87.0398 341.457 86.1894 341.457 85.1818ZM345.19 91V79.3636H352.213V80.6136H346.599V84.25H349.554C350.387 84.25 351.09 84.3864 351.662 84.6591C352.238 84.9318 352.673 85.3163 352.969 85.8125C353.268 86.3087 353.418 86.8939 353.418 87.5682C353.418 88.2424 353.268 88.8371 352.969 89.3523C352.673 89.8674 352.238 90.2708 351.662 90.5625C351.09 90.8542 350.387 91 349.554 91H345.19ZM346.599 89.7727H349.554C350.084 89.7727 350.533 89.6667 350.901 89.4545C351.272 89.2386 351.552 88.9621 351.741 88.625C351.935 88.2841 352.031 87.9242 352.031 87.5455C352.031 86.9886 351.817 86.5095 351.389 86.108C350.961 85.7027 350.349 85.5 349.554 85.5H346.599V89.7727ZM365.555 85.1818C365.555 86.4091 365.334 87.4697 364.891 88.3636C364.447 89.2576 363.839 89.947 363.067 90.4318C362.294 90.9167 361.411 91.1591 360.419 91.1591C359.427 91.1591 358.544 90.9167 357.771 90.4318C356.999 89.947 356.391 89.2576 355.947 88.3636C355.504 87.4697 355.283 86.4091 355.283 85.1818C355.283 83.9545 355.504 82.8939 355.947 82C356.391 81.1061 356.999 80.4167 357.771 79.9318C358.544 79.447 359.427 79.2045 360.419 79.2045C361.411 79.2045 362.294 79.447 363.067 79.9318C363.839 80.4167 364.447 81.1061 364.891 82C365.334 82.8939 365.555 83.9545 365.555 85.1818ZM364.192 85.1818C364.192 84.1742 364.023 83.3239 363.686 82.6307C363.353 81.9375 362.9 81.4129 362.328 81.0568C361.76 80.7008 361.124 80.5227 360.419 80.5227C359.714 80.5227 359.076 80.7008 358.504 81.0568C357.936 81.4129 357.483 81.9375 357.146 82.6307C356.813 83.3239 356.646 84.1742 356.646 85.1818C356.646 86.1894 356.813 87.0398 357.146 87.733C357.483 88.4261 357.936 88.9508 358.504 89.3068C359.076 89.6629 359.714 89.8409 360.419 89.8409C361.124 89.8409 361.76 89.6629 362.328 89.3068C362.9 88.9508 363.353 88.4261 363.686 87.733C364.023 87.0398 364.192 86.1894 364.192 85.1818ZM366.804 80.6136V79.3636H375.531V80.6136H371.872V91H370.463V80.6136H366.804ZM387.04 85.1818C387.04 86.4091 386.818 87.4697 386.375 88.3636C385.932 89.2576 385.324 89.947 384.551 90.4318C383.778 90.9167 382.896 91.1591 381.903 91.1591C380.911 91.1591 380.028 90.9167 379.256 90.4318C378.483 89.947 377.875 89.2576 377.432 88.3636C376.989 87.4697 376.767 86.4091 376.767 85.1818C376.767 83.9545 376.989 82.8939 377.432 82C377.875 81.1061 378.483 80.4167 379.256 79.9318C380.028 79.447 380.911 79.2045 381.903 79.2045C382.896 79.2045 383.778 79.447 384.551 79.9318C385.324 80.4167 385.932 81.1061 386.375 82C386.818 82.8939 387.04 83.9545 387.04 85.1818ZM385.676 85.1818C385.676 84.1742 385.508 83.3239 385.17 82.6307C384.837 81.9375 384.384 81.4129 383.812 81.0568C383.244 80.7008 382.608 80.5227 381.903 80.5227C381.199 80.5227 380.561 80.7008 379.989 81.0568C379.42 81.4129 378.968 81.9375 378.631 82.6307C378.297 83.3239 378.131 84.1742 378.131 85.1818C378.131 86.1894 378.297 87.0398 378.631 87.733C378.968 88.4261 379.42 88.9508 379.989 89.3068C380.561 89.6629 381.199 89.8409 381.903 89.8409C382.608 89.8409 383.244 89.6629 383.812 89.3068C384.384 88.9508 384.837 88.4261 385.17 87.733C385.508 87.0398 385.676 86.1894 385.676 85.1818ZM388.288 80.6136V79.3636H397.016V80.6136H393.357V91H391.947V80.6136H388.288ZM399.19 91V79.3636H406.213V80.6136H400.599V84.5455H405.849V85.7955H400.599V89.75H406.304V91H399.19ZM409.435 79.3636L412.435 84.2045H412.526L415.526 79.3636H417.185L413.526 85.1818L417.185 91H415.526L412.526 86.25H412.435L409.435 91H407.776L411.526 85.1818L407.776 79.3636H409.435ZM419.018 91V79.3636H420.428V84.5455H426.632V79.3636H428.041V91H426.632V85.7955H420.428V91H419.018ZM430.862 79.3636H432.249V88.5227H432.362L438.726 79.3636H440.089V91H438.68V81.8636H438.567L432.226 91H430.862V79.3636ZM449.75 91L445.75 85.6591H444.318V91H442.909V79.3636H444.318V84.4091H444.932L449.591 79.3636H451.273L446.568 84.4773L451.432 91H449.75ZM453.73 91H452.253L456.526 79.3636H457.98L462.253 91H460.776L457.298 81.2045H457.207L453.73 91ZM454.276 86.4545H460.23V87.7045H454.276V86.4545Z" fill="#FBFAFA"/>
</g>
<defs>
<filter id="filter0_d_1383_12313" x="-30" y="18" width="572.311" height="129.35" filterUnits="userSpaceOnUse" color-interpolation-filters="sRGB">
<feFlood flood-opacity="0" result="BackgroundImageFix"/>
<feColorMatrix in="SourceAlpha" type="matrix" values="0 0 0 0 0 0 0 0 0 0 0 0 0 0 0 0 0 0 127 0" result="hardAlpha"/>
<feOffset/>
<feGaussianBlur stdDeviation="7"/>
<feComposite in2="hardAlpha" operator="out"/>
<feColorMatrix type="matrix" values="0 0 0 0 0.9875 0 0 0 0 0.884635 0 0 0 0 0.921938 0 0 0 0.26 0"/>
<feBlend mode="normal" in2="BackgroundImageFix" result="effect1_dropShadow_1383_12313"/>
<feBlend mode="normal" in="SourceGraphic" in2="effect1_dropShadow_1383_12313" result="shape"/>
</filter>
<filter id="filter1_d_1383_12313" x="-63" y="0" width="595" height="167" filterUnits="userSpaceOnUse" color-interpolation-filters="sRGB">
<feFlood flood-opacity="0" result="BackgroundImageFix"/>
<feColorMatrix in="SourceAlpha" type="matrix" values="0 0 0 0 0 0 0 0 0 0 0 0 0 0 0 0 0 0 127 0" result="hardAlpha"/>
<feMorphology radius="12" operator="dilate" in="SourceAlpha" result="effect1_dropShadow_1383_12313"/>
<feOffset/>
<feGaussianBlur stdDeviation="20"/>
<feComposite in2="hardAlpha" operator="out"/>
<feColorMatrix type="matrix" values="0 0 0 0 0 0 0 0 0 0 0 0 0 0 0 0 0 0 0.3 0"/>
<feBlend mode="normal" in2="BackgroundImageFix" result="effect1_dropShadow_1383_12313"/>
<feBlend mode="normal" in="SourceGraphic" in2="effect1_dropShadow_1383_12313" result="shape"/>
</filter>
<linearGradient id="paint0_linear_1383_12313" x1="-11" y1="52" x2="485.768" y2="83.875" gradientUnits="userSpaceOnUse">
<stop stop-color="#5158BF"/>
<stop offset="1"/>
</linearGradient>
<clipPath id="clip0_1383_12313">
<rect width="480" height="135" fill="white" transform="translate(0 22)"/>
</clipPath>
</defs>
</svg>
