<svg width="609" height="610" viewBox="0 0 609 610" fill="none" xmlns="http://www.w3.org/2000/svg">
<path d="M88.4011 179.483C95.5778 201.379 109.763 251.733 109.093 277.976" stroke="#756662" stroke-width="4"/>
<path d="M169.736 331.753C167.809 378.822 176.819 479.181 228.272 504.061" stroke="#FBFAFA" stroke-opacity="0.5" stroke-width="3"/>
<path d="M156.729 334.274C161.065 385.266 154.272 490.612 92.4121 504.061" stroke="#FBFAFA" stroke-opacity="0.5" stroke-width="3"/>
<path d="M73.8233 84.5448C60.2694 78.473 42.1744 84.0791 38.9162 90.5946C37.0547 98.507 34.7771 101.82 53.9356 146.289C73.0941 190.757 60.6425 206.726 79.8737 213.002C95.2586 218.024 123.406 204.935 125.951 202.298C150.558 187.122 90.7656 92.1345 73.8233 84.5448Z" fill="#DFA654"/>
<path d="M79.4039 81.2874C67.7679 73.3747 46.2879 84.1483 40.6935 87.1221C37.8222 94.068 45.4278 103.628 64.0447 141.793C80.363 175.246 74.2842 204.16 102.21 208.814C118.295 211.495 130.383 199.817 132.928 197.179C157.535 182.004 94.6244 91.6377 79.4039 81.2874Z" fill="#F2CD87"/>
<path d="M86.386 292.128C86.386 274.538 103.656 265.133 108.726 265.133C152.108 267.647 305.425 273.691 282.889 309.707C260.354 345.723 188.315 357.092 134.325 337.274C88.6898 320.522 86.386 304.94 86.386 292.128Z" fill="#EABD7E"/>
<path d="M92.4365 286.533C92.4365 268.944 105.395 265.598 110.465 265.598C153.847 268.112 308.218 268.106 285.682 304.122C263.146 340.137 184.27 346 138.635 329.249C92.9999 312.497 92.4365 299.345 92.4365 286.533Z" fill="#F2CD87"/>
<ellipse cx="140.377" cy="560.677" rx="63.7635" ry="8.37769" fill="#EDC9BC"/>
<path d="M134.321 472.967H196.47" stroke="#FBFAFA" stroke-opacity="0.5" stroke-width="2"/>
<ellipse cx="230.671" cy="531.826" rx="33.9762" ry="32.5799" fill="#DFA654"/>
<ellipse cx="235.328" cy="530.892" rx="31.1836" ry="32.5797" fill="#F2CD87"/>
<ellipse cx="235.323" cy="530.422" rx="16.29" ry="17.2208" fill="#46274C"/>
<ellipse cx="83.5916" cy="531.359" rx="34.907" ry="33.0453" fill="#DFA654"/>
<ellipse cx="90.1176" cy="531.802" rx="31.1941" ry="32.7805" fill="#F2CD87"/>
<ellipse cx="89.3493" cy="530.892" rx="17.5146" ry="17.6862" fill="#8697FB"/>
<path d="M433.764 481.202L426.463 458.191L380.754 474.164L389.717 497.901L433.764 481.202Z" fill="#EAA296"/>
<path d="M433.346 481.025L437.723 495.844C443.37 527.074 413.64 526.494 398.069 522.3L389.299 497.725L433.346 481.025Z" fill="white"/>
<path d="M417.737 519.879L392.023 503.265C373.958 523.785 378.947 548.941 383.7 558.953L516.826 524.668C515.231 519.843 511.459 507.745 505.129 502.385C495.497 494.229 449.32 501.996 441.146 505.674C434.607 508.617 426.802 515.982 417.737 519.879Z" fill="#EC286F"/>
<path d="M514.027 516.623L381.93 549.543C379.751 550.086 382.21 556.05 383.712 558.965L516.505 524.52L514.027 516.623Z" fill="#8697FB"/>
<path d="M450.424 504.144L434.401 521.2" stroke="#46274C" stroke-width="3" stroke-linecap="round"/>
<path d="M440.792 505.378L421.667 519.442" stroke="#46274C" stroke-width="3" stroke-linecap="round"/>
<path d="M513.267 517.09L381.32 549.41" stroke="white" stroke-width="4" stroke-linecap="round"/>
<path d="M278.119 514.678L288.035 490.98L241.169 474.37L232.067 499.748L278.119 514.678Z" fill="#EAA296"/>
<path d="M277.906 514.26L271.265 529.31C254.452 558.697 231.437 538.863 222.032 525.272L231.855 499.329L277.906 514.26Z" fill="white"/>
<path d="M239.165 536.079L230.228 505.659C202.034 510.79 188.838 534.749 185.765 546.087L313.929 604.537C315.959 599.527 321.224 587.11 319.889 578.577C317.856 565.591 276.208 541.919 267.268 539.626C260.115 537.791 248.956 538.773 239.165 536.079Z" fill="#EC286F"/>
<path d="M317.207 596.094L190.782 537.188C188.696 536.217 186.572 542.729 185.771 546.106L313.783 604.208L317.207 596.094Z" fill="#8697FB"/>
<path d="M275.618 544.41L251.391 548.019" stroke="#46274C" stroke-width="3" stroke-linecap="round"/>
<path d="M267.196 539.152L242.564 538.279" stroke="#46274C" stroke-width="3" stroke-linecap="round"/>
<path d="M316.289 595.985L190.389 536.684" stroke="white" stroke-width="4" stroke-linecap="round"/>
<path d="M99.9097 146.027C123.222 118.016 155.706 93.9954 169.034 85.4866C180.856 88.875 198.717 93.4381 203.596 89.1009C209.696 83.6794 235.9 103.558 258.715 131.344C269.967 145.046 285.145 165.303 292.826 172.683C299.603 159.129 313.834 131.344 323.999 115.305L363.757 131.344C350.655 223.51 316.997 256.716 286.726 256.716C262.51 256.716 244.559 232.32 238.61 220.121L238.61 256.716L141.475 256.716C56.7634 267.785 50.2124 231.868 55.8598 214.248C61.5072 196.628 70.769 181.041 99.9097 146.027Z" fill="white"/>
<path d="M332.726 282.493C315.495 282.886 255.17 272.04 214.671 282.493L161.45 289.113C161.77 301.008 201.636 290.356 220.354 299.985C239.073 309.614 323.117 283.226 332.726 330.131L356.248 480.61L459.845 461.584C430.909 404.505 391.382 315.798 373.298 292.077C368.868 286.266 354.265 282.002 332.726 282.493Z" fill="#8697FB"/>
<path d="M350.932 265.53C335.858 256.476 260.138 271.427 219.793 258.106L142.452 258.106C136.592 268.214 132.497 278.874 140.603 296.117C157.234 331.488 212.666 338.615 282.089 316.439L209.235 479.573L309.013 515.472C338.578 389.033 349.03 321.993 350.933 316.439C354.675 305.514 369.775 276.848 350.932 265.53Z" fill="#8697FB"/>
<path d="M259.131 251.842L142.195 253.091L139.539 263.529L257.801 259.663L259.131 251.842Z" fill="#46274C"/>
<rect width="2.16289" height="11.7002" transform="matrix(0.999455 -0.0330249 0.0383729 0.999264 165.032 250.98)" fill="white"/>
<rect width="2.16289" height="11.1392" transform="matrix(0.999455 -0.0330249 0.0383729 0.999264 225.038 249.483)" fill="white"/>
<rect width="2.16289" height="11.7002" transform="matrix(0.999455 -0.0330249 0.0383729 0.999264 151.519 251.424)" fill="white"/>
<path d="M197.162 98.9872L191.91 89.9094L184.294 98.9872C179.671 137.221 175.714 206.942 174.314 237.023H186.132C185.502 224.421 193.223 139.748 197.162 98.9872Z" fill="#8697FB"/>
<path d="M175.629 76.9559C190.548 75.3351 210.838 75.8056 214.37 76.9559L191.99 89.209L175.629 76.9559Z" fill="#46274C"/>
<path d="M220.455 29.6367C221.342 25.394 220.086 21.1513 219.347 19.5603C211.958 16.0248 196.072 10.0143 191.639 14.257C187.206 18.4996 189.053 31.2277 190.531 37.0613C182.773 19.5603 167.257 28.576 167.257 39.1827C167.257 47.668 176.862 49.7893 181.665 49.7893V85.3217C193.634 95.0798 204.015 89.3876 207.709 85.3217L208.818 69.4117C226.55 64.1083 224.888 47.668 222.671 42.3647C220.455 37.0613 219.347 34.94 220.455 29.6367Z" fill="#EAA296"/>
<ellipse cx="2.8349" cy="5.76783" rx="2.8349" ry="5.76783" transform="matrix(0.987054 -0.160386 0.136365 0.990659 217.044 39.8248)" fill="#E9746E" fill-opacity="0.78"/>
<ellipse cx="4.82616" cy="6.9557" rx="4.82616" ry="6.9557" transform="matrix(0.984571 0.174985 -0.117907 0.993025 194.225 37.8436)" fill="#E9746E" fill-opacity="0.78"/>
<path d="M189.977 65.701C197.07 70.7923 205.862 70.2973 209.372 69.4134L208.193 80.2981C198.44 78.601 192.008 69.5902 189.977 65.701Z" fill="#46274C"/>
<path d="M177.233 27.5162C185.213 26.2434 189.305 34.757 190.598 38.6461C190.413 33.3427 191.086 21.4702 193.303 20.6217C196.073 19.561 212.698 20.6217 219.347 19.561C225.997 18.5004 230.43 16.379 230.985 10.5454C231.428 5.87842 229.322 2.5895 225.443 2.05985C210.631 0.0373493 186.099 0.999181 181.666 4.18118C178.12 6.72679 177.233 11.6059 177.233 13.7272V27.5162Z" fill="#472E2C"/>
<path d="M173.35 34.4106L182.978 37.8461L176.675 41.305" stroke="#46274C" stroke-width="2" stroke-linecap="round"/>
<path d="M207.404 33.04C207.013 35.888 204.943 41.5838 199.788 41.5838C193.343 41.5838 192.172 35.3184 192.172 33.04" stroke="white" stroke-width="2"/>
<path d="M226.313 33.04C225.727 35.4825 223.501 40.5929 219.283 41.4947C215.065 42.3965 212.057 36.234 211.081 33.04" stroke="white" stroke-width="2"/>
<path d="M226.313 33.04H188.495" stroke="white" stroke-width="2" stroke-linecap="round"/>
<path d="M168.465 85.9977L176.382 76.3844L191.833 89.6019L214.526 76.5639L218.964 93.9139C182.371 90.0074 172.166 89.8062 168.465 85.9977Z" fill="white"/>
<path d="M184.555 99.252C179.227 143.809 174.312 217.263 174.312 238.356" stroke="#46274C" stroke-width="2"/>
<path d="M196.757 98.0283L186.129 231.149" stroke="#46274C" stroke-width="2"/>
<path d="M217.911 93.9135L202.324 107.172L191.675 89.9933L179.495 105.534L168.216 84.8059" stroke="#46274C" stroke-width="2"/>
<ellipse cx="2.56641" cy="2.53466" rx="2.56641" ry="2.53466" transform="matrix(-0.924625 -0.380878 -0.370247 0.928933 193.626 103.59)" fill="white"/>
<ellipse cx="2.56641" cy="2.53466" rx="2.56641" ry="2.53466" transform="matrix(-0.924625 -0.380878 -0.370247 0.928933 191.673 129.282)" fill="white"/>
<path d="M232.097 1.83998C236.035 6.06669 236.118 19.9816 218.496 18.2802" stroke="#472E2C" stroke-width="2" stroke-linecap="round"/>
<path d="M291.448 174.814C290.222 182.913 287.771 200.499 287.771 206.052" stroke="#46274C" stroke-width="2" stroke-linecap="round"/>
<ellipse cx="3.28521" cy="1.89389" rx="3.28521" ry="1.89389" transform="matrix(-0.970601 -0.240693 -0.233321 0.9724 191.796 244.464)" fill="white" fill-opacity="0.63"/>
<path d="M399.143 161.051H464.998C467.994 161.051 470.317 163.668 469.963 166.643L459.158 257.385H372.983L394.27 164.93C394.793 162.66 396.814 161.051 399.143 161.051Z" fill="white" stroke="#46274C" stroke-width="2" stroke-linecap="round"/>
<path d="M329.118 248.083L380.429 248.692L379.117 258.052H351.712L324.059 255.765V253.083C324.059 250.298 326.334 248.05 329.118 248.083Z" fill="#EC286F"/>
<path d="M404.368 160.436H480.566C483.784 160.436 486.164 163.431 485.437 166.565L464.13 258.472L378.287 257.35L399.493 164.325C400.011 162.05 402.034 160.436 404.368 160.436Z" fill="#EC286F"/>
<ellipse cx="7.64716" cy="11.0447" rx="7.64716" ry="11.0447" transform="matrix(-1 0 0 1 440.3 196.896)" fill="white" fill-opacity="0.47"/>
<rect x="180.99" y="255.99" width="374.303" height="8.44688" rx="4.22344" fill="#E9C5B8"/>
<path d="M144.756 231.267L145.934 247.854C148.189 251.623 157.36 250.945 159.794 249.275L162.54 248.415C168.351 248.323 173.951 248.571 177.768 251.151C181.163 253.447 192.659 265.332 196.426 263.212C199.439 261.516 195.335 254.352 194.145 252.366C199.891 256.188 207.256 258.947 208.408 255.188C209.33 252.18 205.882 250.229 202.914 248.587C218.221 250.506 224.54 249.343 219.412 246.149C202.818 235.813 192.344 225.923 144.756 231.267Z" fill="#EAA296"/>
<path d="M201.702 247.05C199.264 245.413 193.76 241.809 191.243 240.494" stroke="#46274C" stroke-width="2" stroke-linecap="round"/>
<path d="M194.648 253.448C191.546 250.009 184.498 242.909 181.122 242.016C177.747 241.124 176.187 241.254 175.829 241.43" stroke="#46274C" stroke-width="2" stroke-linecap="round"/>
<ellipse cx="3.8254" cy="1.58664" rx="3.8254" ry="1.58664" transform="matrix(0.805556 0.580489 0.55228 -0.841631 201.223 251.037)" fill="white" fill-opacity="0.63"/>
<ellipse cx="3.04044" cy="1.54582" rx="3.04044" ry="1.54582" transform="matrix(0.94642 0.309487 0.228209 -0.976547 214.219 247.52)" fill="white" fill-opacity="0.63"/>
<ellipse cx="3.24287" cy="1.80461" rx="3.24287" ry="1.80461" transform="matrix(0.343377 0.9336 0.925733 -0.392613 191.987 256.354)" fill="white" fill-opacity="0.63"/>
<path d="M149.995 256.258C164.393 258.582 164.015 246.544 181.09 253.989C177.299 248.93 167.658 245.932 161.185 247.778C156.007 249.255 150.616 248.944 149.995 248.803L149.995 256.258Z" fill="#E97E77"/>
<path d="M340.104 64.2299C340.079 69.2198 338.344 82.4779 337.479 88.4832L370.821 91.8327C377.075 83.2715 374.057 64.726 378.635 66.2434C383.213 67.7609 382.354 49.7892 379.973 44.7461C378.068 40.7116 373.666 39.9084 371.704 40.0111C374.531 33.9031 372.997 28.609 370.201 28.4797C367.964 28.3763 361.627 34.854 358.738 38.1058C354.903 35.0267 351.518 40.7353 350.221 42.0777C339.105 8.48373 328.275 10.726 330.321 17.7848C332.367 24.8436 340.135 57.9926 340.104 64.2299Z" fill="#EAA296"/>
<path d="M367.043 121.696L372.676 88.9485L341.698 85.1642L330.161 103.595L367.043 121.696Z" fill="#EAA296"/>
<path d="M372.83 90.8235C363.439 87.2365 341.164 82.5523 337.549 82.6648L334.488 96.7495C338.59 96.6654 365.546 103.32 370.356 104.732L372.83 90.8235Z" fill="#141414"/>
<path d="M341.228 97.7942C344.015 92.9129 344.729 86.2154 344.521 83.6975L341.965 83.5425L338.822 97.8917L341.228 97.7942Z" fill="white"/>
<ellipse cx="12.1403" cy="6.80136" rx="12.1403" ry="6.80136" transform="matrix(-0.289083 0.96397 0.947709 0.298457 333.196 75.7538)" fill="#46274C"/>
<ellipse cx="12.1403" cy="6.80136" rx="12.1403" ry="6.80136" transform="matrix(-0.289083 0.96397 0.947709 0.298457 331.181 75.4656)" fill="white"/>
<path d="M332.48 85.0545L333.347 88.6766L328.421 93.0607" stroke="#141414" stroke-width="2" stroke-linecap="round"/>
<path d="M363.529 135.537L322.311 116.598L328.444 102.749L368.62 121.422L363.529 135.537Z" fill="#8697FB"/>
<path d="M370.72 43.4338C370.751 50.6897 372.438 65.1987 378.871 66.3808C379.023 66.3782 379.164 66.3999 379.288 66.4379C379.147 66.4251 379.008 66.4059 378.871 66.3808C377.871 66.3975 376.385 67.4559 376.166 71.7311C375.851 77.8888 374.559 80.9634 373.006 81.3398C373.882 75.5063 373.165 62.7153 363.292 58.219C365.02 54.9512 368.925 47.4192 370.72 43.4338Z" fill="#E97E77"/>
<path d="M351.382 50.0612C353.648 45.3043 356.5 40.8281 360.15 36.722C367.856 28.0512 369.072 27.849 371.572 28.545C374.073 29.241 374.681 37.684 363.196 58.3357C366.996 59.2852 374.264 65.1153 372.937 80.8394" stroke="#46274C" stroke-width="2" stroke-linecap="round"/>
<path d="M368.726 112.14L337.101 106.945L367.145 120.95L368.726 112.14Z" fill="#E97E77"/>
<path d="M144.637 173.135L107.364 210.634L125.21 212.441L142.152 213.345C132.89 212.851 138.538 186.689 144.637 173.135Z" fill="#E3E3E2"/>
<path d="M105.338 210.825C114.218 212.75 127.459 213.986 144.376 214.675" stroke="#46274C" stroke-width="2"/>
<path d="M152.772 256.033L156.211 214.635L144.376 212.75L141.246 256.037L152.772 256.033Z" fill="#8697FB"/>
<path d="M171.999 566.519L256.597 263.311H277.769L228.148 420.697L180.742 566.519H171.999Z" fill="#E9C5B8"/>
<path d="M608.057 574.134L515.08 262.182H491.569L546.674 419.85L597.057 574.134H608.057Z" fill="#E9C5B8"/>
<path d="M339.822 375.568C352.262 315.174 359.062 292.924 360.116 284.183C363.543 285.242 366.969 286.567 371.976 290.805C369.657 300.341 350.101 352.258 339.822 375.568Z" fill="#7C4CEB"/>
<path d="M558.905 66.3257L577.803 51.8046H487V103.88H558.905V66.3257Z" fill="#EC286F"/>
<path d="M571.051 54.5211L589.949 40H499.147V92.0757H571.051V54.5211Z" fill="white" fill-opacity="0.68" stroke="#EC286F" stroke-opacity="0.5" stroke-width="2" stroke-linecap="round"/>
<rect width="26.7337" height="2.00291" transform="matrix(-1 0 0 1 555.843 51.5186)" fill="#EC286F"/>
<rect width="15.6715" height="2.00291" transform="matrix(-1 0 0 1 555.843 64.5364)" fill="#EC286F"/>
<rect width="15.6715" height="2.00291" transform="matrix(-1 0 0 1 528.184 75.5518)" fill="#EC286F"/>
<rect width="15.6715" height="2.00291" transform="matrix(-1 0 0 1 527.264 51.5186)" fill="#EC286F"/>
<rect width="22.1245" height="2.00291" transform="matrix(-1 0 0 1 534.64 64.5364)" fill="#EC286F"/>
<rect width="25.8119" height="2.00291" transform="matrix(-1 0 0 1 555.843 75.5518)" fill="#EC286F"/>
<path d="M277.205 264.439H255.991L255.205 267.34L275.372 269.516L277.205 264.439Z" fill="#46274C"/>
<path d="M492.132 264.439H515.703L516.953 268.738L494 270.081L492.132 264.439Z" fill="#46274C"/>
</svg>
