<svg width="18" height="18" viewBox="0 0 18 18" fill="none" xmlns="http://www.w3.org/2000/svg">
<path d="M14.9876 15.8332C13.6533 15.8332 12.2853 15.4991 10.8836 14.8309C9.48177 14.1622 8.17711 13.2241 6.96955 12.0165C5.7715 10.8085 4.83839 9.50617 4.17022 8.10967C3.50205 6.71317 3.16797 5.34781 3.16797 4.01359C3.16797 3.77609 3.24714 3.57553 3.40547 3.41192C3.5638 3.24831 3.76172 3.1665 3.99922 3.1665H5.95701C6.17234 3.1665 6.36023 3.23432 6.52068 3.36996C6.68112 3.5056 6.78958 3.67924 6.84605 3.89088L7.23872 5.779C7.27566 6.00067 7.26907 6.1941 7.21893 6.3593C7.16932 6.52449 7.0817 6.65986 6.95609 6.76542L5.21839 8.38517C5.5435 8.97523 5.90265 9.52306 6.29584 10.0287C6.68904 10.5348 7.10862 11.0143 7.55459 11.4671C8.01376 11.9263 8.50829 12.3538 9.03818 12.7496C9.56807 13.1449 10.1497 13.5181 10.783 13.869L12.4764 12.1456C12.6052 12.0068 12.75 11.9152 12.911 11.8709C13.072 11.8271 13.2498 11.8184 13.4446 11.8448L15.1103 12.1852C15.3251 12.2379 15.4995 12.3461 15.6336 12.5098C15.7676 12.6739 15.8346 12.862 15.8346 13.0742V15.0019C15.8346 15.2394 15.7528 15.4373 15.5892 15.5957C15.4256 15.754 15.2251 15.8332 14.9876 15.8332Z" fill="#FBFAFA"/>
</svg>
