<svg width="707" height="554" viewBox="0 0 707 545" fill="none" xmlns="http://www.w3.org/2000/svg">
<path d="M160.22 1.10887L160.252 0.10938L160.22 1.10887ZM304.597 73.0876L305.581 72.909L304.597 73.0876ZM225.437 140.068L225.904 139.184L225.437 140.068ZM207.446 56.0927L208.249 56.6889L207.446 56.0927ZM597.399 248.536L598.312 248.944L597.399 248.536ZM467.415 333.51L467.495 332.514L467.415 333.51ZM393.652 216.045L394.622 216.287L393.652 216.045ZM557 175.5L557.673 174.76L557 175.5ZM706.185 542.483C706.728 542.38 707.085 541.857 706.983 541.315L705.315 532.471C705.212 531.928 704.689 531.571 704.147 531.673C703.604 531.776 703.247 532.299 703.349 532.841L704.832 540.703L696.971 542.185C696.428 542.288 696.071 542.811 696.173 543.353C696.276 543.896 696.799 544.253 697.341 544.151L706.185 542.483ZM1.49719 42.4645C30.1741 26.0316 97.9066 0.116681 160.188 2.10836L160.252 0.10938C97.4959 -1.89748 29.3968 24.1719 0.50281 40.7292L1.49719 42.4645ZM160.188 2.10836C196.81 3.27949 230.164 7.02691 255.628 17.5328C281.031 28.0135 298.515 45.184 303.613 73.2663L305.581 72.909C300.334 44.0082 282.27 26.361 256.391 15.684C230.573 5.03211 196.911 1.28169 160.252 0.10938L160.188 2.10836ZM303.613 73.2663C307.727 95.927 299.63 118.452 284.837 132.277C270.086 146.063 248.667 151.218 225.904 139.184L224.969 140.952C248.533 153.41 270.868 148.069 286.203 133.738C301.496 119.446 309.815 96.2346 305.581 72.909L303.613 73.2663ZM225.904 139.184C214.747 133.285 204.555 120.405 200.055 105.074C195.565 89.7765 196.772 72.1417 208.249 56.6889L206.643 55.4964C194.732 71.5343 193.5 89.8421 198.136 105.637C202.762 121.398 213.259 134.761 224.969 140.952L225.904 139.184ZM208.249 56.6889C228.423 29.5256 269.576 12.3372 317.607 6.85108C365.591 1.37024 420.201 7.60183 467.032 27.0253L467.798 25.1779C420.626 5.61289 365.67 -0.651878 317.38 4.864C269.135 10.3746 227.305 27.676 206.643 55.4964L208.249 56.6889ZM467.032 27.0253C513.871 46.4525 556.092 79.8213 581.661 119.305C607.221 158.775 616.104 204.276 596.486 248.127L598.312 248.944C618.275 204.322 609.167 158.1 583.34 118.218C557.522 78.3504 514.961 44.7391 467.798 25.1779L467.032 27.0253ZM596.486 248.127C584.004 276.028 569.12 298.503 548.715 313.311C528.337 328.101 502.347 335.32 467.495 332.514L467.335 334.507C502.567 337.345 529.055 330.051 549.89 314.93C570.699 299.828 585.764 276.993 598.312 248.944L596.486 248.127ZM467.495 332.514C427.623 329.303 377.247 286.098 394.622 216.287L392.682 215.804C374.974 286.951 426.377 331.209 467.335 334.507L467.495 332.514ZM394.622 216.287C400.185 193.936 423.857 168.653 454.623 156.608C485.305 144.596 522.897 145.812 556.327 176.24L557.673 174.76C523.603 143.751 485.182 142.497 453.894 154.745C422.692 166.961 398.44 192.668 392.682 215.804L394.622 216.287ZM556.327 176.24C609.195 224.359 602.373 285.17 604.25 349.697C605.187 381.894 608.314 414.942 622.311 447.505C636.316 480.086 661.169 512.107 705.436 542.326L706.564 540.674C662.572 510.643 637.986 478.907 624.148 446.715C610.303 414.504 607.184 381.761 606.25 349.639C604.385 285.528 611.322 223.59 557.673 174.76L556.327 176.24Z" fill="#FBFAFA" fill-opacity="0.5"/>
</svg>
